<?xml version="1.0" encoding="utf-8"?>
<!-- Generator: Adobe Illustrator 27.0.0, SVG Export Plug-In . SVG Version: 6.00 Build 0)  -->
<svg version="1.1" id="Layer_1" xmlns="http://www.w3.org/2000/svg" xmlns:xlink="http://www.w3.org/1999/xlink" x="0px" y="0px"
	 viewBox="0 0 1685.06 950.34" style="enable-background:new 0 0 1685.06 950.34;" xml:space="preserve" height="72px">
<style type="text/css">
	.st0{fill:#991C24;}
	.st1{fill:#F37840;}
	.st2{fill:#F38220;}
</style>
<g>
	<g>
		<g>
			<path class="st0" d="M19.52,732.44c-5.82,0-10.54-4.71-10.54-10.54V222.66c0-3.96,2.22-7.59,5.75-9.39l391.3-199.7
				c2.99-1.52,6.52-1.53,9.5-0.04l389.29,194.3c5.21,2.59,7.32,8.92,4.72,14.13c-2.6,5.21-8.92,7.36-14.14,4.72L410.87,34.77
				L30.06,229.11V721.9C30.06,727.73,25.34,732.44,19.52,732.44z"/>
		</g>
		<g>
			<path class="st1" d="M78.09,262.72c-3.83,0-7.53-2.09-9.39-5.74c-2.65-5.18-0.6-11.53,4.58-14.18L386.84,82.36
				c5.2-2.62,11.54-0.6,14.18,4.59c2.65,5.18,0.6,11.53-4.58,14.18L82.88,261.57C81.34,262.35,79.71,262.72,78.09,262.72z"/>
		</g>
	</g>
	<g>
		<g>
			<path class="st1" d="M1274.24,937.92c-1.61,0-3.23-0.37-4.71-1.11L880.25,742.5c-5.21-2.59-7.32-8.92-4.72-14.13
				c2.6-5.2,8.92-7.34,14.14-4.72l384.52,191.93L1655,721.23V228.44c0-5.83,4.72-10.54,10.54-10.54s10.54,4.71,10.54,10.54v499.24
				c0,3.96-2.22,7.59-5.75,9.39l-391.3,199.7C1277.53,937.54,1275.88,937.92,1274.24,937.92z"/>
		</g>
		<g>
			<path class="st0" d="M1293.42,869.12c-3.83,0-7.53-2.09-9.39-5.74c-2.65-5.18-0.6-11.53,4.58-14.18l313.56-160.43
				c5.19-2.62,11.54-0.6,14.18,4.59c2.65,5.18,0.6,11.53-4.58,14.18l-313.56,160.43C1296.68,868.75,1295.04,869.12,1293.42,869.12z"
				/>
		</g>
	</g>
	<g>
		<path class="st0" d="M249.06,527.66H142.33v-12.15c2.44-0.21,6.03-0.52,10.78-0.93c4.75-0.41,8.02-1.04,9.83-1.87
			c3.34-1.56,5.63-3.61,6.85-6.15c1.22-2.54,1.83-5.79,1.83-9.74V340.11c0-3.53-0.59-6.64-1.76-9.35c-1.18-2.7-3.48-4.88-6.92-6.54
			c-2.17-1.04-5.38-2.1-9.63-3.19c-4.25-1.09-7.91-1.84-10.98-2.26v-12.15h106.72v12.15c-2.71,0.31-6.1,0.76-10.17,1.33
			c-4.07,0.57-7.5,1.38-10.31,2.41c-3.53,1.35-5.88,3.45-7.05,6.31c-1.18,2.86-1.76,6.1-1.76,9.73V495.1c0,3.74,0.61,6.93,1.83,9.58
			c1.22,2.65,3.55,4.81,6.98,6.46c1.9,0.94,5.04,1.85,9.43,2.73c4.38,0.88,8.07,1.43,11.05,1.64V527.66z"/>
		<path class="st0" d="M367.85,533.73c-14.1,0-27.3-2.63-39.6-7.88c-12.3-5.25-23.01-12.87-32.14-22.85
			c-8.95-9.77-16-21.86-21.15-36.27c-5.15-14.4-7.73-30.23-7.73-47.5c0-17.16,2.6-33.04,7.8-47.65c5.2-14.61,12.5-27.27,21.9-37.98
			c9.22-10.5,20.29-18.64,33.22-24.41c12.93-5.77,26.76-8.66,41.5-8.66c10.67,0,20.39,1.51,29.15,4.52
			c8.77,3.01,16.18,6.39,22.24,10.12l8.41-8.57h11.8l1.22,80.69h-11.93c-6.77-24.67-14.9-42.78-24.38-54.33
			c-9.48-11.55-21.04-17.33-34.67-17.33c-16.98,0-29.89,8.61-38.74,25.82c-8.85,17.22-13.27,41.37-13.27,72.47
			c0,17.58,1.51,32.58,4.54,45.01c3.03,12.43,6.98,22.44,11.85,30.03c5.24,7.9,11.42,13.71,18.56,17.4s15.04,5.54,23.71,5.54
			c12.64,0,23.91-3.94,33.79-11.84c9.89-7.89,18.9-19.84,27.02-35.83l11.66,8.1c-3.89,9.14-8.32,17.32-13.29,24.54
			c-4.97,7.22-10.71,13.42-17.22,18.61c-7.14,5.71-15.03,10.18-23.66,13.4C389.79,532.12,379.6,533.73,367.85,533.73z"/>
		<path class="st0" d="M730.06,527.66H625.78v-12.15c3.07-0.31,6.85-0.83,11.32-1.56c4.48-0.73,7.53-1.51,9.15-2.34
			c3.34-1.56,5.74-3.69,7.19-6.39c1.44-2.7,2.17-6.13,2.17-10.28V329.82l-66.18,194.25h-17.09c-0.81-3.43-2.83-10.23-6.03-20.41
			c-3.21-10.18-5.81-18.33-7.8-24.46l-48.68-151.88v134.43c0,12.88,0.75,22.67,2.24,29.36c1.49,6.7,3.91,11.6,7.25,14.72
			c2.26,2.18,6.31,4.26,12.14,6.23c5.83,1.97,9.92,3.12,12.27,3.43v12.15h-82.72v-12.15c2.26-0.31,5.94-1.01,11.05-2.1
			c5.11-1.09,9.29-2.98,12.54-5.68c3.62-2.91,6.06-7.81,7.32-14.72c1.26-6.9,1.9-16.75,1.9-29.52V353.97
			c0-6.64-0.72-12.17-2.17-16.59c-1.45-4.41-3.62-7.92-6.51-10.51c-3.62-3.22-7.32-5.3-11.12-6.23c-3.8-0.93-7.64-1.56-11.53-1.87
			v-12.15h88.67l47.43,145.64l39.98-118.2c1.35-4.37,2.66-9.56,3.93-15.59c1.26-6.03,1.94-9.98,2.03-11.85h85.24v12.15
			c-2.89,0.21-5.92,0.62-9.09,1.25c-3.17,0.62-6.19,1.45-9.09,2.49c-3.53,1.35-5.85,3.48-6.98,6.39c-1.13,2.91-1.7,6.13-1.7,9.66
			V495.1c0,3.74,0.56,6.88,1.7,9.43c1.13,2.55,3.46,4.75,6.98,6.62c1.81,0.94,4.77,1.82,8.88,2.65c4.11,0.83,7.3,1.4,9.56,1.71
			V527.66z"/>
		<path class="st0" d="M923.16,329.36c11.75,8.83,21.24,20.59,28.48,35.28c7.23,14.69,10.85,32.69,10.85,53.98
			c0,18.69-3.23,34.97-9.7,48.84c-6.47,13.86-15.03,25.21-25.7,34.04c-10.85,8.83-23.17,15.4-36.95,19.71
			c-13.79,4.31-28.23,6.46-43.33,6.46h-96.96v-12.15c2.89-0.1,6.51-0.41,10.85-0.93c4.34-0.52,7.23-1.14,8.68-1.87
			c3.25-1.56,5.51-3.66,6.78-6.31c1.26-2.65,1.9-5.84,1.9-9.58V340.11c0-3.53-0.59-6.72-1.76-9.58c-1.18-2.86-3.48-5.16-6.92-6.93
			c-3.44-1.77-7.08-2.96-10.92-3.58c-3.84-0.62-6.8-1.04-8.88-1.25v-12.15h102.38c10.94,0,22.65,1.61,35.12,4.83
			C899.57,314.66,911.59,320.63,923.16,329.36z M895.5,487.78c4.43-8.31,7.66-18.2,9.7-29.68c2.03-11.47,3.05-24.69,3.05-39.65
			c0-14.64-1.36-27.99-4.07-40.03c-2.71-12.05-6.69-22.33-11.93-30.84c-5.24-8.51-11.78-15.11-19.6-19.78
			c-7.82-4.67-16.7-7.01-26.65-7.01c-3.17,0-6.76,0.08-10.78,0.23c-4.02,0.15-7.03,0.29-9.02,0.39v167.77
			c0,3.74,0.43,7.04,1.29,9.89c0.86,2.86,2.33,5.38,4.41,7.56c2.08,2.18,4.63,3.87,7.66,5.06c3.03,1.19,6.98,1.79,11.87,1.79
			c10.21,0,18.99-2.18,26.31-6.54C885.06,502.58,890.98,496.19,895.5,487.78z"/>
		<path class="st0" d="M1202.38,527.66h-73.84c-12.74-22.43-23.33-40.29-31.78-53.59c-8.45-13.29-18.95-28.66-31.5-46.11h-7.44
			v67.14c0,3.74,0.61,6.91,1.83,9.5c1.22,2.6,3.55,4.78,6.98,6.54c1.72,0.83,4.41,1.69,8.07,2.57c3.66,0.88,6.8,1.48,9.42,1.79
			v12.15H981.47v-12.15c2.62-0.31,6.08-0.75,10.37-1.32c4.29-0.57,7.34-1.27,9.15-2.1c3.44-1.66,5.74-3.76,6.92-6.31
			c1.17-2.54,1.76-5.79,1.76-9.74V340.11c0-3.74-0.5-6.85-1.49-9.35c-1-2.49-3.39-4.67-7.19-6.54c-2.89-1.35-6.3-2.49-10.24-3.43
			c-3.93-0.93-7.03-1.61-9.29-2.02v-12.15h107.94c24.14,0,42.47,4.34,54.99,13.01c12.52,8.67,18.78,21.78,18.78,39.33
			c0,15.47-3.86,27.91-11.59,37.31c-7.73,9.4-19.51,16.75-35.33,22.04c6.15,9.14,13.31,19.73,21.49,31.78
			c8.18,12.05,16.7,24.36,25.56,36.92c2.8,4.05,6.62,9.01,11.46,14.88c4.84,5.87,9.11,9.48,12.81,10.83
			c2.08,0.73,4.72,1.35,7.93,1.87c3.21,0.52,5.49,0.83,6.85,0.93V527.66z M1110.03,363.31c0-14.74-3.59-25.52-10.78-32.32
			c-7.19-6.8-17.43-10.2-30.71-10.2h-10.71v92.53h10.31c13.29,0,23.59-4,30.92-11.99C1106.37,393.33,1110.03,380.66,1110.03,363.31z
			"/>
		<path class="st0" d="M1283.61,533.73c-11.75,0-22.71-1.69-32.89-5.06c-10.17-3.37-18.78-7.35-25.83-11.92l-9.36,10.9h-11.53
			l-1.76-79.91h11.66c2.62,7.6,5.97,15.61,10.04,24.04s8.77,15.98,14.1,22.64c5.51,6.97,11.68,12.64,18.51,17.01
			c6.82,4.37,14.8,6.56,23.94,6.56c12.29,0,21.72-3.45,28.27-10.37c6.55-6.91,9.83-15.62,9.83-26.12c0-8.63-2.78-15.87-8.34-21.75
			c-5.56-5.87-14.17-10.95-25.83-15.22c-7.59-2.81-14.58-5.42-20.95-7.82c-6.37-2.4-12.36-4.85-17.97-7.36
			c-12.93-5.93-22.53-14.4-28.82-25.42c-6.28-11.02-9.42-23.34-9.42-36.96c0-8.63,1.63-16.92,4.88-24.88
			c3.25-7.96,8-15.1,14.24-21.45c5.97-5.93,13.61-10.76,22.92-14.51c9.31-3.74,19.44-5.61,30.38-5.61c10.67,0,20.66,1.71,29.97,5.14
			c9.31,3.43,16.63,6.86,21.97,10.28l8.27-9.35h11.8l1.09,75.4h-11.66c-2.71-8.12-5.9-16.42-9.56-24.9
			c-3.66-8.49-7.53-15.54-11.59-21.16c-4.43-6.04-9.54-10.85-15.32-14.45c-5.79-3.59-12.57-5.38-20.34-5.38
			c-9.76,0-17.74,3.17-23.93,9.52c-6.19,6.34-9.29,14.2-9.29,23.56c0,8.84,2.69,16.07,8.07,21.69c5.38,5.62,13.76,10.56,25.16,14.82
			c6.69,2.6,13.51,5.2,20.48,7.8c6.96,2.6,13.15,5.1,18.58,7.49c13.11,5.82,23.07,13.86,29.9,24.1
			c6.82,10.24,10.24,22.95,10.24,38.14c0,9.57-1.94,18.82-5.83,27.77c-3.89,8.94-9.13,16.38-15.73,22.31
			c-7.23,6.55-15.6,11.59-25.09,15.13C1307.34,531.96,1296.26,533.73,1283.61,533.73z"/>
		<path class="st0" d="M1553.74,363.01h-10.31c-2.62-8.38-7.14-16.87-13.56-25.45c-6.42-8.59-12.79-13.66-19.12-15.21
			c-2.71-0.73-6.49-1.17-11.32-1.32c-4.84-0.15-8.84-0.23-12-0.23h-27.94V406h19.8c4.97,0,9.49-0.68,13.56-2.02
			c4.07-1.35,7.77-3.95,11.12-7.79c2.08-2.39,4.18-6.59,6.31-12.62c2.12-6.02,3.5-11.27,4.14-15.73h10.31v92.22h-10.31
			c-0.54-4.36-1.92-9.84-4.14-16.43c-2.22-6.6-4.32-11.14-6.31-13.63c-2.98-3.74-6.51-6.31-10.58-7.71c-4.07-1.4-8.77-2.1-14.1-2.1
			h-19.8v63.71c0,6.65,0.43,11.92,1.29,15.81c0.86,3.89,2.46,6.88,4.81,8.96c2.26,1.97,5.36,3.27,9.29,3.89
			c3.93,0.62,9.29,0.93,16.07,0.93c3.16,0,6.96-0.05,11.39-0.15c4.43-0.1,8.32-0.42,11.66-0.93c3.8-0.52,7.34-1.3,10.65-2.34
			c3.3-1.04,5.76-2.54,7.39-4.52c4.34-5.09,9.22-12.85,14.64-23.29c5.42-10.44,9-18.25,10.71-23.44h9.9l-3.66,68.85h-180.49v-12.15
			c2.53-0.21,5.97-0.62,10.31-1.25c4.34-0.62,7.41-1.35,9.22-2.18c3.44-1.66,5.74-3.76,6.92-6.31c1.17-2.54,1.76-5.79,1.76-9.74
			V340.11c0-3.74-0.5-6.83-1.49-9.27c-1-2.44-3.39-4.65-7.19-6.62c-2.35-1.25-5.65-2.39-9.9-3.43c-4.25-1.04-7.46-1.71-9.63-2.02
			v-12.15h170.6V363.01z"/>
	</g>
	<g>
		<path class="st2" d="M141.87,581.14h16.75v34.41h0.33c1.66-3,3.44-5.77,5.1-8.55l16.97-25.87h20.75l-24.74,33.14l26.07,44.69
			h-19.75l-18.3-33.6l-6.43,8.2v25.41h-16.75V581.14z"/>
		<path class="st2" d="M265.13,640.84c0,7.39,0.22,13.4,0.44,18.13h-14.64l-0.78-7.97h-0.33c-2.11,3.46-7.21,9.24-16.97,9.24
			c-10.98,0-19.08-7.16-19.08-24.6V602.5h16.97v30.37c0,8.2,2.55,13.16,8.43,13.16c4.66,0,7.32-3.35,8.43-6.12
			c0.44-1.04,0.56-2.43,0.56-3.81v-33.6h16.97V640.84z"/>
		<path class="st2" d="M316.16,658.97l-1-5.66h-0.33c-3.55,4.5-9.1,6.93-15.53,6.93c-10.98,0-17.53-8.31-17.53-17.32
			c0-14.67,12.65-21.71,31.84-21.59v-0.81c0-3-1.55-7.28-9.87-7.28c-5.55,0-11.43,1.96-14.98,4.27l-3.11-11.32
			c3.77-2.19,11.2-4.97,21.08-4.97c18.08,0,23.85,11.09,23.85,24.37v19.63c0,5.43,0.22,10.62,0.78,13.74H316.16z M314.16,632.3
			c-8.87-0.12-15.75,2.08-15.75,8.89c0,4.5,2.88,6.7,6.66,6.7c4.21,0,7.65-2.89,8.76-6.47c0.22-0.92,0.33-1.96,0.33-3V632.3z"/>
		<path class="st2" d="M350.56,576.98h16.86v81.99h-16.86V576.98z"/>
		<path class="st2" d="M418.56,658.97l-1-5.66h-0.33c-3.55,4.5-9.1,6.93-15.53,6.93c-10.98,0-17.53-8.31-17.53-17.32
			c0-14.67,12.65-21.71,31.84-21.59v-0.81c0-3-1.55-7.28-9.87-7.28c-5.55,0-11.43,1.96-14.98,4.27l-3.11-11.32
			c3.77-2.19,11.2-4.97,21.08-4.97c18.08,0,23.85,11.09,23.85,24.37v19.63c0,5.43,0.22,10.62,0.78,13.74H418.56z M416.56,632.3
			c-8.87-0.12-15.75,2.08-15.75,8.89c0,4.5,2.88,6.7,6.66,6.7c4.21,0,7.65-2.89,8.76-6.47c0.22-0.92,0.33-1.96,0.33-3V632.3z"/>
		<path class="st2" d="M482.57,581.14h16.97v63.05h29.73v14.78h-46.7V581.14z"/>
		<path class="st2" d="M595.29,640.84c0,7.39,0.22,13.4,0.44,18.13h-14.64l-0.78-7.97h-0.33c-2.11,3.46-7.21,9.24-16.97,9.24
			c-10.98,0-19.08-7.16-19.08-24.6V602.5h16.97v30.37c0,8.2,2.55,13.16,8.43,13.16c4.66,0,7.32-3.35,8.43-6.12
			c0.44-1.04,0.56-2.43,0.56-3.81v-33.6h16.97V640.84z"/>
		<path class="st2" d="M615.48,620.52c0-7.04-0.22-13.05-0.44-18.01h14.2l0.78,7.62h0.33c2.33-3.58,7.1-8.89,16.42-8.89
			c6.99,0,12.54,3.7,14.87,9.58h0.22c2-2.89,4.44-5.2,6.99-6.81c3-1.85,6.32-2.77,10.32-2.77c10.43,0,18.3,7.62,18.3,24.48v33.26
			h-16.42v-30.72c0-8.2-2.55-12.93-7.99-12.93c-3.88,0-6.66,2.77-7.77,6.12c-0.44,1.27-0.67,3.12-0.67,4.5v33.03h-16.42v-31.64
			c0-7.16-2.44-12.01-7.76-12.01c-4.33,0-6.88,3.46-7.88,6.35c-0.55,1.39-0.67,3-0.67,4.39v32.91h-16.42V620.52z"/>
		<path class="st2" d="M717.55,621.44c0-7.39-0.22-13.74-0.44-18.94h14.64l0.78,7.85h0.22c3.99-6,10.21-9.12,18.08-9.12
			c11.87,0,22.52,10.74,22.52,28.75c0,20.56-12.54,30.26-24.63,30.26c-6.55,0-11.65-2.77-14.09-6.47h-0.22v28.06h-16.86V621.44z
			 M734.41,634.72c0,1.39,0.11,2.66,0.33,3.7c1.11,4.73,4.99,8.31,9.87,8.31c7.32,0,11.65-6.35,11.65-15.94
			c0-9.01-3.88-15.82-11.43-15.82c-4.77,0-8.99,3.7-10.09,8.89c-0.22,0.92-0.33,2.08-0.33,3.12V634.72z"/>
		<path class="st2" d="M841.69,640.84c0,7.39,0.22,13.4,0.44,18.13h-14.64l-0.78-7.97h-0.33c-2.11,3.46-7.21,9.24-16.97,9.24
			c-10.98,0-19.08-7.16-19.08-24.6V602.5h16.97v30.37c0,8.2,2.55,13.16,8.43,13.16c4.66,0,7.32-3.35,8.43-6.12
			c0.44-1.04,0.56-2.43,0.56-3.81v-33.6h16.97V640.84z"/>
		<path class="st2" d="M861.88,621.09c0-8.31-0.22-13.74-0.44-18.59h14.53l0.55,10.39h0.44c2.77-8.2,9.43-11.66,14.64-11.66
			c1.55,0,2.33,0,3.55,0.23v16.51c-1.22-0.23-2.66-0.46-4.55-0.46c-6.21,0-10.43,3.46-11.54,8.89c-0.22,1.15-0.33,2.54-0.33,3.93
			v28.64h-16.86V621.09z"/>
		<path class="st2" d="M896.94,672.71c3.44-10.28,6.43-22.29,7.99-32.8l17.19-1.15c-3.66,11.78-8.65,23.9-13.98,32.91L896.94,672.71
			z"/>
		<path class="st2" d="M1031.84,629.18c-0.33-9.35-0.67-20.67-0.67-31.99h-0.33c-2.33,9.93-5.44,21.02-8.32,30.14l-9.1,30.37h-13.2
			l-7.99-30.14c-2.44-9.12-4.99-20.21-6.77-30.37h-0.22c-0.44,10.51-0.78,22.52-1.33,32.22l-1.33,29.56h-15.64l4.77-77.83h22.52
			l7.32,25.98c2.33,9.01,4.66,18.71,6.32,27.83h0.33c2.11-9.01,4.66-19.28,7.1-27.95l7.99-25.87h22.08l4.1,77.83h-16.53
			L1031.84,629.18z"/>
		<path class="st2" d="M1099.74,658.97l-1-5.66h-0.33c-3.55,4.5-9.1,6.93-15.53,6.93c-10.98,0-17.53-8.31-17.53-17.32
			c0-14.67,12.65-21.71,31.84-21.59v-0.81c0-3-1.55-7.28-9.87-7.28c-5.55,0-11.43,1.96-14.98,4.27l-3.11-11.32
			c3.77-2.19,11.2-4.97,21.08-4.97c18.08,0,23.85,11.09,23.85,24.37v19.63c0,5.43,0.22,10.62,0.78,13.74H1099.74z M1097.74,632.3
			c-8.87-0.12-15.75,2.08-15.75,8.89c0,4.5,2.88,6.7,6.66,6.7c4.21,0,7.65-2.89,8.76-6.47c0.22-0.92,0.33-1.96,0.33-3V632.3z"/>
		<path class="st2" d="M1134.13,576.98h16.86v81.99h-16.86V576.98z"/>
		<path class="st2" d="M1202.14,658.97l-1-5.66h-0.33c-3.55,4.5-9.1,6.93-15.53,6.93c-10.98,0-17.53-8.31-17.53-17.32
			c0-14.67,12.65-21.71,31.84-21.59v-0.81c0-3-1.55-7.28-9.87-7.28c-5.55,0-11.43,1.96-14.98,4.27l-3.11-11.32
			c3.77-2.19,11.2-4.97,21.08-4.97c18.08,0,23.85,11.09,23.85,24.37v19.63c0,5.43,0.22,10.62,0.78,13.74H1202.14z M1200.14,632.3
			c-8.87-0.12-15.75,2.08-15.75,8.89c0,4.5,2.88,6.7,6.66,6.7c4.22,0,7.65-2.89,8.76-6.47c0.22-0.92,0.33-1.96,0.33-3V632.3z"/>
		<path class="st2" d="M1247.85,602.5l8.1,27.72c0.89,3.35,2,7.51,2.66,10.51h0.33c0.78-3,1.66-7.27,2.44-10.51l6.66-27.72h18.08
			l-12.65,37.18c-7.77,22.4-12.98,31.41-19.08,37.07c-5.88,5.31-12.09,7.16-16.31,7.74l-3.55-14.9c2.11-0.35,4.77-1.39,7.32-3
			c2.55-1.39,5.32-4.16,6.99-7.04c0.56-0.81,0.89-1.73,0.89-2.54c0-0.58-0.11-1.5-0.78-2.89l-19.86-51.62H1247.85z"/>
		<path class="st2" d="M1297.99,643.61c3.11,1.96,9.54,4.27,14.53,4.27c5.1,0,7.21-1.85,7.21-4.73c0-2.89-1.66-4.27-7.99-6.47
			c-11.2-3.93-15.53-10.28-15.42-16.98c0-10.51,8.65-18.48,22.08-18.48c6.32,0,11.98,1.5,15.31,3.23l-3,12.13
			c-2.44-1.39-7.1-3.23-11.76-3.23c-4.1,0-6.43,1.73-6.43,4.62c0,2.66,2.11,4.04,8.76,6.47c10.32,3.7,14.64,9.12,14.75,17.44
			c0,10.51-7.99,18.25-23.52,18.25c-7.1,0-13.42-1.62-17.53-3.93L1297.99,643.61z"/>
		<path class="st2" d="M1370.33,586.8c0,4.85-3.55,8.78-9.1,8.78c-5.32,0-8.88-3.93-8.76-8.78c-0.11-5.08,3.44-8.89,8.87-8.89
			C1366.77,577.91,1370.21,581.72,1370.33,586.8z M1352.91,658.97V602.5h16.86v56.47H1352.91z"/>
		<path class="st2" d="M1420.8,658.97l-1-5.66h-0.33c-3.55,4.5-9.1,6.93-15.53,6.93c-10.98,0-17.53-8.31-17.53-17.32
			c0-14.67,12.65-21.71,31.84-21.59v-0.81c0-3-1.55-7.28-9.87-7.28c-5.55,0-11.43,1.96-14.98,4.27l-3.11-11.32
			c3.77-2.19,11.2-4.97,21.08-4.97c18.08,0,23.85,11.09,23.85,24.37v19.63c0,5.43,0.22,10.62,0.78,13.74H1420.8z M1418.8,632.3
			c-8.87-0.12-15.75,2.08-15.75,8.89c0,4.5,2.88,6.7,6.66,6.7c4.21,0,7.65-2.89,8.76-6.47c0.22-0.92,0.33-1.96,0.33-3V632.3z"/>
	</g>
	<g>
		<path d="M141.87,767.17v-8.84l7.75-7.3c13.1-12.2,19.47-19.21,19.65-26.51c0-5.09-2.95-9.12-9.87-9.12
			c-5.17,0-9.69,2.69-12.83,5.19l-3.97-10.47c4.52-3.55,11.53-6.44,19.65-6.44c13.56,0,21.04,8.26,21.04,19.59
			c0,10.47-7.29,18.83-15.96,26.89l-5.54,4.8v0.19h22.61v12.01H141.87z"/>
		<path d="M198.62,767.17v-8.84l7.75-7.3c13.1-12.2,19.47-19.21,19.65-26.51c0-5.09-2.95-9.12-9.87-9.12
			c-5.17,0-9.69,2.69-12.83,5.19l-3.97-10.47c4.52-3.55,11.53-6.44,19.65-6.44c13.56,0,21.04,8.26,21.04,19.59
			c0,10.47-7.29,18.83-15.96,26.89l-5.54,4.8v0.19h22.61v12.01H198.62z"/>
		<path d="M278.44,737.1v9.7h-24.17v-9.7H278.44z"/>
		<path d="M290.62,767.17v-8.84l7.75-7.3c13.1-12.2,19.47-19.21,19.65-26.51c0-5.09-2.95-9.12-9.87-9.12
			c-5.17,0-9.69,2.69-12.83,5.19l-3.97-10.47c4.52-3.55,11.53-6.44,19.65-6.44c13.56,0,21.04,8.26,21.04,19.59
			c0,10.47-7.29,18.83-15.96,26.89l-5.54,4.8v0.19h22.61v12.01H290.62z"/>
		<path d="M349.86,752.86c2.49,1.34,8.21,3.84,13.93,3.84c7.29,0,10.98-3.65,10.98-8.36c0-6.15-5.91-8.93-12.09-8.93h-5.72v-10.47
			h5.44c4.71-0.1,10.7-1.92,10.7-7.2c0-3.75-2.95-6.53-8.86-6.53c-4.89,0-10.06,2.21-12.55,3.75l-2.86-10.57
			c3.6-2.4,10.8-4.71,18.55-4.71c12.83,0,19.93,7.01,19.93,15.56c0,6.63-3.6,11.81-10.98,14.5v0.19c7.2,1.34,13.01,7.01,13.01,15.18
			c0,11.05-9.32,19.11-24.54,19.11c-7.75,0-14.3-2.11-17.81-4.42L349.86,752.86z"/>
		<path d="M483.11,742.39c-0.28-7.78-0.55-17.19-0.55-26.61h-0.28c-1.94,8.26-4.52,17.48-6.92,25.07l-7.57,25.26h-10.98l-6.64-25.07
			c-2.03-7.59-4.15-16.81-5.63-25.26h-0.18c-0.37,8.74-0.65,18.73-1.11,26.8l-1.11,24.59h-13.01l3.97-64.74h18.73l6.09,21.61
			c1.94,7.49,3.88,15.56,5.26,23.15h0.28c1.75-7.49,3.88-16.04,5.91-23.24l6.64-21.52h18.36l3.41,64.74h-13.75L483.11,742.39z"/>
		<path d="M539.58,767.17l-0.83-4.71h-0.28c-2.95,3.75-7.57,5.76-12.92,5.76c-9.13,0-14.58-6.92-14.58-14.41
			c0-12.2,10.52-18.06,26.48-17.96v-0.67c0-2.5-1.29-6.05-8.21-6.05c-4.61,0-9.5,1.63-12.46,3.55l-2.58-9.41
			c3.14-1.82,9.32-4.13,17.53-4.13c15.04,0,19.84,9.22,19.84,20.27v16.33c0,4.51,0.18,8.84,0.65,11.43H539.58z M537.92,744.98
			c-7.38-0.1-13.1,1.73-13.1,7.4c0,3.75,2.4,5.57,5.54,5.57c3.51,0,6.37-2.4,7.29-5.38c0.18-0.77,0.28-1.63,0.28-2.5V744.98z"/>
		<path d="M577.6,720.2l6.74,23.05c0.74,2.79,1.66,6.24,2.21,8.74h0.28c0.65-2.5,1.38-6.05,2.03-8.74l5.54-23.05h15.04l-10.52,30.93
			c-6.46,18.63-10.8,26.13-15.87,30.83c-4.89,4.42-10.06,5.95-13.56,6.44L566.53,776c1.75-0.29,3.97-1.15,6.09-2.5
			c2.12-1.15,4.43-3.46,5.81-5.86c0.46-0.67,0.74-1.44,0.74-2.11c0-0.48-0.09-1.25-0.65-2.4l-16.52-42.94H577.6z"/>
		<path d="M643.3,767.17v-8.84l7.75-7.3c13.1-12.2,19.47-19.21,19.65-26.51c0-5.09-2.95-9.12-9.87-9.12
			c-5.17,0-9.69,2.69-12.83,5.19l-3.97-10.47c4.52-3.55,11.53-6.44,19.65-6.44c13.56,0,21.04,8.26,21.04,19.59
			c0,10.47-7.29,18.83-15.96,26.89l-5.54,4.8v0.19h22.61v12.01H643.3z"/>
		<path d="M744.35,735.66c0,19.31-7.47,32.56-22.79,32.56c-15.5,0-22.33-14.5-22.42-32.18c0-18.06,7.38-32.37,22.88-32.37
			C738.07,703.68,744.35,718.57,744.35,735.66z M713.25,736.05c-0.09,14.31,3.23,21.13,8.67,21.13c5.44,0,8.4-7.11,8.4-21.32
			c0-13.83-2.86-21.13-8.49-21.13C716.66,714.72,713.16,721.54,713.25,736.05z"/>
		<path d="M756.8,767.17v-8.84l7.75-7.3c13.1-12.2,19.47-19.21,19.65-26.51c0-5.09-2.95-9.12-9.87-9.12
			c-5.17,0-9.69,2.69-12.83,5.19l-3.97-10.47c4.52-3.55,11.53-6.44,19.65-6.44c13.56,0,21.04,8.26,21.04,19.59
			c0,10.47-7.29,18.83-15.96,26.89l-5.54,4.8v0.19h22.61v12.01H756.8z"/>
		<path d="M853.6,716.74h-23.25l-1.29,9.61c1.29-0.19,2.4-0.19,3.88-0.19c5.72,0,11.53,1.34,15.78,4.51
			c4.52,3.17,7.29,8.36,7.29,15.66c0,11.62-9.6,21.9-25.74,21.9c-7.29,0-13.38-1.73-16.7-3.55l2.49-10.95
			c2.68,1.34,8.12,3.07,13.56,3.07c5.81,0,12-2.88,12-9.51c0-6.44-4.89-10.37-16.89-10.37c-3.32,0-5.63,0.19-8.12,0.58l3.97-32.75
			h33.03V716.74z"/>
	</g>
</g>
</svg>
