<svg id="Capa_1" enable-background="new 0 0 511.997 511.997" height="512" viewBox="0 0 511.997 511.997" width="512" xmlns="http://www.w3.org/2000/svg"><g><path d="m480.222 496.997h-41.096v-67.51-38.679c0-4.142-3.358-7.5-7.5-7.5s-7.5 3.358-7.5 7.5v31.179h-23.682v-195.261c.553-.513 1.092-1.041 1.603-1.596 5.187 5.635 12.619 9.174 20.864 9.174.407 0 .812-.014 1.215-.031v121.937c0 4.142 3.358 7.5 7.5 7.5s7.5-3.358 7.5-7.5v-127.018c7.337-5.132 12.149-13.638 12.149-23.252 0 0 0-13.968 0-13.994v-.031c0-3.123-1.873-5.869-4.802-6.998-59.622-22.986-106.502-60.943-135.331-88.737-26.506-25.554-43.042-47.445-47.644-53.78v-34.9c0-4.142-3.358-7.5-7.5-7.5s-7.5 3.358-7.5 7.5v34.9c-4.607 6.341-21.145 28.232-47.644 53.78-28.829 27.794-75.709 65.751-135.331 88.737-1.131.436-2.184 1.184-2.974 2.1-1.195 1.386-1.803 2.967-1.824 4.811 0 .029-.004.058-.004.087v14.025c0 9.614 4.812 18.12 12.149 23.252v200.295 67.51h-41.095c-4.142 0-7.5 3.358-7.5 7.5s3.358 7.5 7.5 7.5h448.447c4.142 0 7.5-3.358 7.5-7.5s-3.358-7.5-7.5-7.5zm-94.777-121.338h-47.278-54.779-54.778-54.779-47.278v-27.299h258.893v27.299zm-212.903-141.355c8.245 0 15.677-3.539 20.864-9.174 5.187 5.635 12.619 9.174 20.864 9.174s15.677-3.539 20.864-9.174c5.187 5.635 12.619 9.174 20.864 9.174s15.677-3.539 20.864-9.174c5.187 5.635 12.619 9.174 20.864 9.174s15.677-3.539 20.864-9.174c5.187 5.635 12.619 9.174 20.864 9.174s15.677-3.539 20.864-9.174c5.187 5.635 12.619 9.174 20.864 9.174 1.449 0 2.87-.115 4.261-.326v32.884h-258.891v-32.884c1.391.211 2.813.326 4.261.326 8.245 0 15.677-3.539 20.864-9.174 5.188 5.636 12.62 9.174 20.865 9.174zm-13.364-28.364v-6.525h26.729v6.525c0 7.369-5.995 13.364-13.364 13.364s-13.365-5.995-13.365-13.364zm41.728 0v-6.525h26.728v6.525c0 7.369-5.995 13.364-13.364 13.364-7.369 0-13.364-5.995-13.364-13.364zm41.728 0v-6.525h26.729v6.525c0 7.369-5.995 13.364-13.364 13.364s-13.365-5.995-13.365-13.364zm41.729 0v-6.525h26.728v6.525c0 7.369-5.995 13.364-13.364 13.364-7.369 0-13.364-5.995-13.364-13.364zm41.728 0v-6.525h26.729v6.525c0 7.369-5.995 13.364-13.364 13.364s-13.365-5.995-13.365-13.364zm41.728 0v-6.525h26.728v6.525c0 7.369-5.995 13.364-13.364 13.364s-13.364-5.995-13.364-13.364zm-223.641 0c0 7.369-5.995 13.364-13.364 13.364s-13.364-5.995-13.364-13.364v-6.525h26.728zm-17.626 127.42v-51.498h258.893v51.498zm282.995-133.945h26.729v6.525c0 7.369-5.995 13.364-13.364 13.364s-13.364-5.995-13.364-13.364v-6.525zm-197.991-92.717c21.648-20.905 36.657-39.159 44.443-49.275 7.786 10.116 22.794 28.37 44.443 49.275 39.011 37.672 77.033 62.076 108.063 77.717h-31.363c-61.063-23.988-101.198-72.303-112.095-86.622-2.167-2.849-5.464-4.483-9.046-4.484 0 0 0 0-.001 0-3.582 0-6.879 1.634-9.046 4.482-3.613 4.747-11.351 14.411-22.578 25.791-2.909 2.949-2.877 7.698.071 10.606 2.949 2.91 7.697 2.875 10.606-.071 9.399-9.527 16.504-17.951 20.946-23.531 12.154 15.272 42.187 49.19 86.237 73.829h-172.454c13.248-7.403 26.202-16.189 38.742-26.288 3.226-2.598 3.735-7.319 1.137-10.545s-7.319-3.734-10.545-1.137c-20.506 16.512-42.115 29.275-64.246 37.97h-31.323c46.614-23.483 83.584-54.13 108.009-77.717zm-135.835 99.242v-6.525h26.729v6.525c0 7.369-5.995 13.364-13.364 13.364s-13.365-5.995-13.365-13.364zm35.831 291.057h-23.681v-60.01h23.682v60.01zm0-75.01h-23.681v-187.714c.403.017.807.031 1.215.031 8.245 0 15.677-3.539 20.864-9.174.511.555 1.049 1.083 1.603 1.596v195.261zm54.779 75.01h-39.778v-22.505h39.778zm0-37.505h-39.778v-30.005-38.828h39.778zm54.778 37.505h-39.779v-22.505h39.779zm0-37.505h-39.779v-68.833h39.779zm54.779 37.505h-39.778v-22.505h39.778zm0-37.505h-39.778v-68.833h39.778zm54.779 37.505h-39.779v-22.505h39.779zm0-37.505h-39.779v-68.833h39.779zm54.778 37.505h-39.778v-22.505h39.778zm0-37.505h-39.778v-68.833h39.778zm38.681 37.505h-23.682v-60.01h23.682z"/></g></svg>