<svg id="Capa_1" enable-background="new 0 0 512 512" height="512" viewBox="0 0 512 512" width="512" xmlns="http://www.w3.org/2000/svg"><g><path d="m504.508 496.479h-4.46v-264.017h.973c5.752 0 10.431-4.68 10.431-10.431v-23.617c0-5.752-4.68-10.431-10.431-10.431h-.973v-5.363c0-18.39-13.132-33.767-30.51-37.256v-24.771c0-4.138-3.354-7.492-7.492-7.492s-7.492 3.354-7.492 7.492v24.771c-17.379 3.489-30.511 18.866-30.511 37.256v5.363h-.043c-5.752 0-10.431 4.679-10.431 10.431v23.617c0 5.752 4.68 10.431 10.431 10.431h.973v12.994h-41.131v-64.918c10.766-1.798 18.999-11.175 18.999-22.443v-10.397c0-6.334-5.153-11.488-11.488-11.488h-7.937c-6.788-21.693-19.039-41.336-35.692-57.088-3.007-2.846-7.749-2.711-10.591.294-2.843 3.007-2.711 7.749.295 10.591 13.635 12.898 23.956 28.723 30.205 46.203h-223.269c16.637-46.624 61.036-78.438 111.262-78.596.125.006.248.019.375.019.135 0 .267-.013.4-.02 19.039.065 37.932 4.737 54.664 13.533 3.662 1.925 8.193.518 10.118-3.145s.517-8.193-3.146-10.118c-16.791-8.827-35.508-13.967-54.544-15.041v-34.813c0-4.138-3.354-7.492-7.492-7.492s-7.492 3.354-7.492 7.492v34.81c-55.407 3.1-103.366 40.359-119.933 93.372h-7.928c-6.335 0-11.488 5.154-11.488 11.488v10.397c0 11.268 8.233 20.644 18.999 22.443v64.918h-40.202v-12.994h.973c5.752 0 10.431-4.68 10.431-10.431v-23.617c0-5.752-4.68-10.431-10.431-10.431h-.973v-5.363c0-18.39-13.132-33.767-30.51-37.256v-24.771c0-4.138-3.354-7.492-7.492-7.492s-7.492 3.354-7.492 7.492v24.771c-17.379 3.489-30.511 18.866-30.511 37.256v5.363h-.043c-5.752 0-10.431 4.679-10.431 10.431v23.617c0 5.752 4.679 10.431 10.431 10.431h.974v140.675c0 4.138 3.354 7.492 7.492 7.492s7.492-3.354 7.492-7.492v-140.676h45.107v12.994h-11.74c-6.335 0-11.488 5.154-11.488 11.488v10.563c0 12.648 10.289 22.938 22.937 22.938h.29v206.034h-45.107v-88.695c0-4.138-3.354-7.492-7.492-7.492s-7.492 3.354-7.492 7.492v88.695h-5.39c-4.138 0-7.492 3.354-7.492 7.492s3.354 7.492 7.492 7.492h497.016c4.138 0 7.492-3.354 7.492-7.492s-3.354-7.492-7.492-7.492zm-65.481-313.859c0-12.692 10.326-23.018 23.019-23.018 12.692 0 23.018 10.326 23.018 23.018v5.363h-46.037zm-314.884-24.524v-6.901h263.714v6.901c0 4.287-3.488 7.775-7.775 7.775h-248.164c-4.287 0-7.775-3.488-7.775-7.775zm196.39 153.72c-11.836-20.291-32.95-34.526-57.493-36.833v-11.569c0-4.138-3.354-7.492-7.492-7.492s-7.492 3.354-7.492 7.492v11.654c-24.158 2.567-44.898 16.706-56.589 36.748h-58.73c.511 0 7.218-16.852 8.136-18.568 16.478-30.801 46.717-55.049 80.798-64.344 65.271-17.802 135.43 19.205 157.593 82.913h-58.731zm80.215 14.984v7.068c0 4.386-3.568 7.954-7.954 7.954h-62.498c-.518-5.181-1.573-10.205-3.099-15.021h73.551zm-85.528 15.021h-118.44c3.697-29.389 28.845-52.196 59.22-52.196s55.523 22.807 59.22 52.196zm-130.416-15.021c-1.526 4.816-2.581 9.841-3.099 15.021h-62.498c-4.385 0-7.954-3.568-7.954-7.954v-7.067zm78.236-117.319v-11.16c0-4.138-3.354-7.492-7.492-7.492s-7.492 3.354-7.492 7.492v11.207c-33.24 1.809-64.032 14.898-88.027 35.929h-16.887v-64.172h225.716v64.172h-16.887c-24.212-21.222-55.345-34.358-88.931-35.976zm-236.104-26.861c0-12.692 10.326-23.018 23.019-23.018 12.692 0 23.018 10.326 23.018 23.018v5.363h-46.037zm-10.474 34.858v-14.512h67.915v14.512zm56.221 57.983c-4.385 0-7.953-3.568-7.953-7.954v-7.067h80.51c-4.049 4.742-7.804 9.757-11.232 15.02h-61.325zm53.808 221.018h-38.534v-206.034h37.519c-3.359 6.814-6.205 13.954-8.494 21.371h-9.226c-6.335 0-11.488 5.154-11.488 11.488v10.564c0 12.648 10.29 22.938 22.938 22.938h7.285zm54.837 0h-39.853v-139.674h19.514v7.068c0 11.769 8.911 21.491 20.34 22.786v109.82zm99.755 0h-50.167v-39.99c0-6.977 3.028-13.596 8.306-18.159l13.281-11.479c1.993-1.723 4.998-1.723 6.992 0l13.281 11.48c5.279 4.562 8.306 11.181 8.306 18.158v39.99zm34.605 0h-19.62v-39.99c0-11.334-4.918-22.084-13.492-29.494l-13.28-11.479c-7.58-6.552-19.011-6.552-26.589 0l-13.281 11.478c-8.574 7.411-13.492 18.162-13.492 29.495v39.99h-19.62v-109.669h119.376v109.669zm-131.763-124.653c-4.385 0-7.953-3.568-7.953-7.953v-7.068h160.055v7.068c0 4.385-3.568 7.953-7.953 7.953zm186.6 124.653h-39.853v-109.82c11.429-1.295 20.34-11.017 20.34-22.786v-7.068h19.514v139.674zm54.448 0h-39.464v-139.674h7.285c12.648 0 22.938-10.29 22.938-22.938v-10.564c0-6.334-5.153-11.488-11.488-11.488h-9.226c-2.289-7.417-5.134-14.557-8.494-21.371h38.45v206.035zm-46.981-221.018c-3.429-5.264-7.184-10.278-11.232-15.02h80.51v7.067c0 4.386-3.568 7.954-7.953 7.954h-61.325zm107.072 221.018h-45.107v-206.05c12.352-.341 22.297-10.489 22.297-22.921v-10.563c0-6.334-5.153-11.488-11.488-11.488h-10.809v-12.994h45.107zm11.405-279.001h-67.915v-14.512h67.915z"/></g></svg>