<?xml version="1.0" encoding="UTF-8"?>
<svg xmlns="http://www.w3.org/2000/svg" version="1.1" xmlns:xlink="http://www.w3.org/1999/xlink" viewBox="0 0 123.75 46.52">
  <defs>
    <style>
      .cls-1 {
        fill: #5a5a5a;
      }

      .cls-2 {
        clip-path: url(#clippath-4);
      }

      .cls-3 {
        fill: url(#linear-gradient-2);
      }

      .cls-4 {
        fill: #2db4df;
      }

      .cls-5 {
        fill: #25204d;
      }

      .cls-6 {
        fill: #fff;
      }

      .cls-7 {
        fill: none;
      }

      .cls-8 {
        fill: url(#linear-gradient-4);
      }

      .cls-9 {
        fill: url(#linear-gradient-3);
      }

      .cls-10 {
        clip-path: url(#clippath-1);
      }

      .cls-11 {
        fill: url(#linear-gradient-5);
      }

      .cls-12 {
        clip-path: url(#clippath-3);
      }

      .cls-13 {
        fill: url(#linear-gradient-6);
      }

      .cls-14 {
        fill: #267ce2;
      }

      .cls-15 {
        clip-path: url(#clippath-2);
      }

      .cls-16 {
        fill: url(#linear-gradient);
      }

      .cls-17 {
        clip-path: url(#clippath);
      }
    </style>
    <linearGradient id="linear-gradient" x1="87.51" y1="286.52" x2="114.81" y2="303.58" gradientTransform="translate(0 317.73) scale(1 -1)" gradientUnits="userSpaceOnUse">
      <stop offset="0" stop-color="#2656a2"/>
      <stop offset=".62" stop-color="#d0e0f3"/>
      <stop offset="1" stop-color="#488bc2"/>
    </linearGradient>
    <linearGradient id="linear-gradient-2" x1="87.51" y1="25" x2="114.81" y2="42.05" gradientUnits="userSpaceOnUse">
      <stop offset="0" stop-color="#4c7bbc"/>
      <stop offset=".35" stop-color="#d0e0f3"/>
      <stop offset=".75" stop-color="#4188c0"/>
      <stop offset="1" stop-color="#b9ceea"/>
    </linearGradient>
    <linearGradient id="linear-gradient-3" x1="88.47" y1="29.11" x2="119.24" y2="29.11" gradientUnits="userSpaceOnUse">
      <stop offset="0" stop-color="#1a60a6"/>
      <stop offset=".5" stop-color="#fefefe"/>
      <stop offset=".77" stop-color="#1a60a6"/>
      <stop offset="1" stop-color="#4088bf"/>
    </linearGradient>
    <linearGradient id="linear-gradient-4" x1="92.82" y1="276.66" x2="122.34" y2="291.71" gradientTransform="translate(0 317.73) scale(1 -1)" gradientUnits="userSpaceOnUse">
      <stop offset="0" stop-color="#1a60a6"/>
      <stop offset=".5" stop-color="#fefefe"/>
      <stop offset="1" stop-color="#4088bf"/>
    </linearGradient>
    <linearGradient id="linear-gradient-5" x1="89.37" y1="282.15" x2="118.53" y2="298.99" gradientTransform="translate(0 317.73) scale(1 -1)" gradientUnits="userSpaceOnUse">
      <stop offset="0" stop-color="#204191"/>
      <stop offset=".35" stop-color="#fefefe"/>
      <stop offset=".64" stop-color="#3b80c1"/>
      <stop offset=".75" stop-color="#387abc"/>
      <stop offset=".88" stop-color="#326ab1"/>
      <stop offset="1" stop-color="#2a57a3"/>
    </linearGradient>
    <linearGradient id="linear-gradient-6" x1="92.82" y1="15.14" x2="122.34" y2="30.18" gradientTransform="matrix(1,0,0,1,0,0)" xlink:href="#linear-gradient-4"/>
    <clipPath id="clippath">
      <path class="cls-7" d="M87.26,10.36v29.53h31.84V10.36h-31.84ZM112.36,16.25c-.21-.07-.4-.14-.59-.19-1.1-.32-2.25-.48-3.41-.48-.02,0-.04,0-.07,0-1.24-.65-2.72-1.25-4.45-1.59-1.12-.22-2.81-.54-4.85-.3.04-.02.07-.04.1-.06l.34-.17c.35-.18.67-.33,1.01-.48l.48-.21.37-.15c.99-.39,1.97-.68,2.94-.88,3.23.47,6.46,1.94,9.13,4.08l-1,.43Z"/>
    </clipPath>
    <clipPath id="clippath-1">
      <path class="cls-7" d="M87.26,16.31v29.53h31.84v-29.53h-31.84ZM90.72,30.75c-.05.56-.06,1.1-.05,1.62l-.43.06-.42.2c-.19-.41-.36-.83-.51-1.24-.01-.17-.03-.34-.04-.52-.03-.58-.03-1.36.07-2.28.02-.17.05-.41.1-.7,0,0,.2-1.17.61-2.38.5-1.49,1.28-2.88,1.65-3.52l.1.15c-.15,1.09-.18,2.18-.09,3.23.03.31.08.62.13.93-.53,1.26-.97,2.73-1.12,4.46Z"/>
    </clipPath>
    <clipPath id="clippath-2">
      <path class="cls-7" d="M86.47,11.59v35.04h34.77V11.59h-34.77ZM89.99,34.7c-.33-.96-.65-2.32-.72-3.85-.03-.58-.03-1.36.07-2.28.01-.12.04-.29.07-.47-.03-.19-.05-.35-.07-.47-.1-.92-.1-1.7-.07-2.28.01-.3.04-.59.07-.88h.01s.7,1.02.7,1.02h.14c-.03.68,0,1.37.07,2.04.02.14.04.29.06.43l.03.21s.2,1.13.57,2.24c.15.43.33.89.54,1.36l.1.04-.87.49s-.02-.04-.03-.07c.01,1.04.13,1.98.29,2.82l-.97-.35ZM91.74,34.27c-.23-.39-.64-1.11-1.03-1.97l.94-.35.1.42c.01.58.06,1.15.13,1.68l-.14.22ZM96.67,14.19l.08-.26s.47-.3.65-.41l.12-.07c.25-.15.5-.29.75-.43l.35-.19.39-.13.27-.03.06.04c.37-.03.75-.05,1.12-.05h.56s.17.96.17.96c-1.3-.07-2.83.03-4.52.57Z"/>
    </clipPath>
    <clipPath id="clippath-3">
      <path class="cls-7" d="M89.78,15.95v30.68h33.01V15.95h-33.01ZM113.28,41.7c-.81.59-1.65,1.12-2.51,1.59-.17.05-.33.09-.49.13.15-.04.3-.06.44-.11-.96.51-1.94.95-2.94,1.3-.2,0-.4.03-.6.03-1.74,0-3.53-.34-5.35-.99h0s0,0,0,0c-.46-.16-.91-.35-1.37-.56-.09-.04-.18-.08-.28-.12-.47-.22-.93-.45-1.4-.71-.06-.03-.11-.06-.17-.1l.83-.6c.36.03.7.04,1.03.04,1.36,0,2.54-.23,3.17-.36.24-.05.45-.11.67-.17.18.05.35.1.54.14.12.03.27.06.41.09.09.02.19.04.29.06.05.01.11.02.17.03.86.15,2.01.29,3.35.22h0c.91-.05,1.91-.18,2.97-.49.52-.15,1-.33,1.46-.52l-.22,1.11ZM118.42,31.91c-.05-1.02-.19-1.94-.33-2.65l.82.06c.06.31.12.67.17,1.04-.2.54-.42,1.05-.65,1.54Z"/>
    </clipPath>
    <clipPath id="clippath-4">
      <path class="cls-7" d="M86.47,9.57v35.04h34.77V9.57h-34.77ZM104.02,43.13c-.76.15-2.04.41-3.56.41-.38,0-.75-.02-1.12-.05l-.05.04-.27-.03-.35-.11-.39-.21c-.51-.28-1.01-.58-1.51-.9l-.08-.27c.95.31,1.85.46,2.69.54-.19-.1-.39-.19-.58-.3-.84-.46-1.56-.93-2.15-1.34l.95-.5c1.03.27,1.92.34,2.34.37.37.03.67.03.9.03.35,0,.72-.01,1.14-.04.22-.02.56-.06.97-.12.61.22,1.24.41,1.92.56.38.08.9.19,1.51.27.09-.03.17-.07.26-.11l.11.98c-.88.33-1.79.6-2.71.78ZM106.95,13.29c-.13,0-.27,0-.4,0-.13,0-.26.01-.38.02-.29.02-.53.05-.76.08-.26.04-.49.08-.71.12l-.33.07-.33.08-.33.09c-.21.06-.41.12-.6.18l-.4.13-.88.35c-.35-.02-.68-.03-.96-.03-.24,0-.59,0-1,.04-.16.01-.35.03-.56.05-.03,0-.05,0-.08,0-.71.08-1.68.23-2.76.62l.33-1.11c.45-.29.96-.6,1.51-.91.14-.08.28-.15.42-.22l.19-.09h0s0,0,0,0c.91-.47,1.83-.86,2.74-1.18,1.8-.06,3.65.24,5.45.82l-.14.88Z"/>
    </clipPath>
  </defs>
  <!-- Generator: Adobe Illustrator 28.6.0, SVG Export Plug-In . SVG Version: 1.2.0 Build 709)  -->
  <g>
    <g id="Layer_1">
      <g>
        <g>
          <path class="cls-6" d="M120.41,28.1c.02,2.24.05,6.58-2.92,10.49-4.4,5.78-11.75,5.83-12.86,5.82-1.17-.01-8.18-.19-12.61-5.86-3.2-4.1-3.18-8.66-3.17-10.47,0-1.8.04-6.4,3.34-10.52,4.5-5.6,11.4-5.75,12.44-5.75.97,0,8.23.07,12.7,5.85,3.03,3.92,3.07,8.26,3.09,10.45Z"/>
          <g>
            <g>
              <path class="cls-16" d="M91.8,37.89c-.56-1.38-1.36-3.94-1.08-7.14.36-4.09,2.3-6.84,3.38-8.34.94-1.31,4.47-6.04,10.76-7.42,1.29-.28,3.96-.83,7.19.1,2.41.7,4.11,1.93,5.05,2.74-.37-.66-.99-1.59-1.97-2.49-.2-.19-.94-.85-2.06-1.47-2.31-1.28-4.65-1.5-5.9-1.52-2.74-.04-4.74.79-6.26,1.43-2.7,1.12-4.46,2.57-5.07,3.1-2.07,1.78-3.19,3.58-3.93,4.77-.19.3-1.23,2-1.85,3.84-.41,1.21-.61,2.38-.61,2.38-.05.29-.08.53-.1.7-.1.92-.1,1.7-.07,2.28.09,1.9.56,3.56.96,4.49.43,1,1.02,1.84,1.02,1.84.21.29.4.53.54.7Z"/>
              <path class="cls-3" d="M91.8,18.31c-.56,1.38-1.36,3.94-1.08,7.14.36,4.09,2.3,6.84,3.38,8.34.94,1.31,4.47,6.04,10.76,7.42,1.29.28,3.96.83,7.19-.1,2.41-.7,4.11-1.93,5.05-2.74-.37.66-.99,1.59-1.97,2.49-.2.19-.94.85-2.06,1.47-2.31,1.28-4.65,1.5-5.9,1.52-2.74.04-4.74-.79-6.26-1.43-2.7-1.12-4.46-2.57-5.07-3.1-2.07-1.78-3.19-3.58-3.93-4.77-.19-.3-1.23-2-1.85-3.84-.41-1.21-.61-2.38-.61-2.38-.05-.29-.08-.53-.1-.7-.1-.92-.1-1.7-.07-2.28.09-1.9.56-3.56.96-4.49.43-1,1.02-1.84,1.02-1.84.21-.29.4-.53.54-.7Z"/>
              <path class="cls-9" d="M100.86,14.38c.34,0,.74.01,1.19.05.85.07,4.05.4,7.47,2.57.37.24,1.53.99,2.86,2.28,1.26,1.22,4.29,4.14,5.45,8.85.4,1.62,1.78,7.22-1.58,11.52-1.78,2.27-4.09,3.16-4.93,3.47-1.39.51-2.78.73-4.12.73-6.16,0-11.33-4.49-11.69-4.81-2.14-1.92-3.31-4-3.93-5.09-.55-.96-1.19-2.1-1.68-3.74-.28-.95-.87-3.02-.55-5.71.15-1.28.45-3.59,2.18-5.84.34-.44,1.72-2.17,4.16-3.26,1.77-.79,3.35-.92,4.18-.98.41-.03.76-.04,1-.04M100.86,13.59c-.36,0-.72.01-1.06.04-.75.06-2.51.19-4.44,1.05-2.45,1.09-3.94,2.81-4.47,3.5-1.91,2.49-2.21,5.11-2.33,6.23-.52,4.63,1.4,8.19,2.32,9.91.47.86,1.7,3.16,4.09,5.3.16.14,1.59,1.4,3.81,2.63,2.87,1.58,5.69,2.38,8.4,2.38,1.52,0,3-.26,4.4-.78.82-.3,3.33-1.23,5.28-3.72,1.54-1.97,2.34-4.4,2.37-7.24.03-2.24-.44-4.14-.64-4.96-1.22-4.93-4.34-7.94-5.67-9.23-1.2-1.16-2.29-1.93-2.99-2.38-3.24-2.06-6.3-2.57-7.83-2.69-.41-.03-.83-.05-1.25-.05h0Z"/>
              <path class="cls-8" d="M118.04,17.95c.3.68.7,1.72.94,3.02.48,2.55.09,4.59-.19,5.94-.2,1.01-.63,2.67-1.56,4.57-.89,1.8-1.86,3.01-2.39,3.67-.42.52-1.33,1.6-2.57,2.68-1.22,1.06-4.04,3.51-8.43,4.39-1.53.31-4.16.8-7.26-.23-2.36-.79-3.94-2.12-4.81-2.96.57.97,1.73,2.68,3.84,3.96,2.37,1.45,4.64,1.57,5.84,1.62,5.97.27,12.54-3.39,15.93-8.64.99-1.54,3.59-6.26,3.39-10.72-.15-3.46-1.94-6.07-2.74-7.31Z"/>
              <path class="cls-11" d="M100.86,41.82c-.24,0-.59,0-1-.04-.83-.06-2.41-.19-4.18-.98-2.44-1.09-3.82-2.82-4.16-3.26-1.72-2.25-2.02-4.56-2.18-5.84-.32-2.68.27-4.76.55-5.71.49-1.64,1.13-2.78,1.68-3.74.62-1.08,1.78-3.17,3.93-5.09.36-.32,5.53-4.81,11.69-4.81,1.34,0,2.73.21,4.12.73.85.31,3.15,1.2,4.93,3.47,3.37,4.3,1.98,9.9,1.58,11.52-1.16,4.71-4.19,7.63-5.45,8.85-1.33,1.29-2.49,2.04-2.86,2.28-3.42,2.17-6.62,2.5-7.47,2.57-.45.04-.85.05-1.19.05M100.86,42.61c.42,0,.84-.02,1.25-.05,1.53-.12,4.59-.63,7.83-2.69.7-.45,1.79-1.22,2.99-2.38,1.33-1.29,4.45-4.29,5.67-9.23.2-.81.67-2.71.64-4.96-.03-2.84-.83-5.27-2.37-7.24-1.95-2.5-4.46-3.42-5.28-3.72-1.4-.51-2.88-.78-4.4-.78-2.71,0-5.54.8-8.4,2.38-2.22,1.22-3.66,2.49-3.81,2.63-2.39,2.14-3.63,4.44-4.09,5.3-.92,1.71-2.84,5.28-2.32,9.91.13,1.12.42,3.74,2.33,6.23.53.69,2.02,2.4,4.47,3.5,1.93.86,3.69.99,4.44,1.05.34.03.69.04,1.06.04h0Z"/>
            </g>
            <path class="cls-13" d="M118.04,38.25c.3-.68.7-1.72.94-3.02.48-2.55.09-4.59-.19-5.94-.2-1.01-.63-2.67-1.56-4.57-.89-1.8-1.86-3.01-2.39-3.67-.42-.52-1.33-1.6-2.57-2.68-1.22-1.06-4.04-3.51-8.43-4.39-1.53-.31-4.16-.8-7.26.23-2.36.79-3.94,2.12-4.81,2.96.57-.97,1.73-2.68,3.84-3.96,2.37-1.45,4.64-1.57,5.84-1.62,5.97-.27,12.54,3.39,15.93,8.64.99,1.54,3.59,6.26,3.39,10.72-.15,3.46-1.94,6.07-2.74,7.31Z"/>
            <g class="cls-17">
              <path class="cls-16" d="M91.8,37.89c-.56-1.38-1.36-3.94-1.08-7.14.36-4.09,2.3-6.84,3.38-8.34.94-1.31,4.47-6.04,10.76-7.42,1.29-.28,3.96-.83,7.19.1,2.41.7,4.11,1.93,5.05,2.74-.37-.66-.99-1.59-1.97-2.49-.2-.19-.94-.85-2.06-1.47-2.31-1.28-4.65-1.5-5.9-1.52-2.74-.04-4.74.79-6.26,1.43-2.7,1.12-4.46,2.57-5.07,3.1-2.07,1.78-3.19,3.58-3.93,4.77-.19.3-1.23,2-1.85,3.84-.41,1.21-.61,2.38-.61,2.38-.05.29-.08.53-.1.7-.1.92-.1,1.7-.07,2.28.09,1.9.56,3.56.96,4.49.43,1,1.02,1.84,1.02,1.84.21.29.4.53.54.7Z"/>
            </g>
            <g class="cls-10">
              <path class="cls-3" d="M91.8,18.31c-.56,1.38-1.36,3.94-1.08,7.14.36,4.09,2.3,6.84,3.38,8.34.94,1.31,4.47,6.04,10.76,7.42,1.29.28,3.96.83,7.19-.1,2.41-.7,4.11-1.93,5.05-2.74-.37.66-.99,1.59-1.97,2.49-.2.19-.94.85-2.06,1.47-2.31,1.28-4.65,1.5-5.9,1.52-2.74.04-4.74-.79-6.26-1.43-2.7-1.12-4.46-2.57-5.07-3.1-2.07-1.78-3.19-3.58-3.93-4.77-.19-.3-1.23-2-1.85-3.84-.41-1.21-.61-2.38-.61-2.38-.05-.29-.08-.53-.1-.7-.1-.92-.1-1.7-.07-2.28.09-1.9.56-3.56.96-4.49.43-1,1.02-1.84,1.02-1.84.21-.29.4-.53.54-.7Z"/>
            </g>
            <g class="cls-15">
              <path class="cls-9" d="M100.86,14.38c.34,0,.74.01,1.19.05.85.07,4.05.4,7.47,2.57.37.24,1.53.99,2.86,2.28,1.26,1.22,4.29,4.14,5.45,8.85.4,1.62,1.78,7.22-1.58,11.52-1.78,2.27-4.09,3.16-4.93,3.47-1.39.51-2.78.73-4.12.73-6.16,0-11.33-4.49-11.69-4.81-2.14-1.92-3.31-4-3.93-5.09-.55-.96-1.19-2.1-1.68-3.74-.28-.95-.87-3.02-.55-5.71.15-1.28.45-3.59,2.18-5.84.34-.44,1.72-2.17,4.16-3.26,1.77-.79,3.35-.92,4.18-.98.41-.03.76-.04,1-.04M100.86,13.59c-.36,0-.72.01-1.06.04-.75.06-2.51.19-4.44,1.05-2.45,1.09-3.94,2.81-4.47,3.5-1.91,2.49-2.21,5.11-2.33,6.23-.52,4.63,1.4,8.19,2.32,9.91.47.86,1.7,3.16,4.09,5.3.16.14,1.59,1.4,3.81,2.63,2.87,1.58,5.69,2.38,8.4,2.38,1.52,0,3-.26,4.4-.78.82-.3,3.33-1.23,5.28-3.72,1.54-1.97,2.34-4.4,2.37-7.24.03-2.24-.44-4.14-.64-4.96-1.22-4.93-4.34-7.94-5.67-9.23-1.2-1.16-2.29-1.93-2.99-2.38-3.24-2.06-6.3-2.57-7.83-2.69-.41-.03-.83-.05-1.25-.05h0Z"/>
            </g>
            <g class="cls-12">
              <path class="cls-8" d="M118.04,17.95c.3.68.7,1.72.94,3.02.48,2.55.09,4.59-.19,5.94-.2,1.01-.63,2.67-1.56,4.57-.89,1.8-1.86,3.01-2.39,3.67-.42.52-1.33,1.6-2.57,2.68-1.22,1.06-4.04,3.51-8.43,4.39-1.53.31-4.16.8-7.26-.23-2.36-.79-3.94-2.12-4.81-2.96.57.97,1.73,2.68,3.84,3.96,2.37,1.45,4.64,1.57,5.84,1.62,5.97.27,12.54-3.39,15.93-8.64.99-1.54,3.59-6.26,3.39-10.72-.15-3.46-1.94-6.07-2.74-7.31Z"/>
            </g>
            <g class="cls-2">
              <path class="cls-11" d="M100.86,41.82c-.24,0-.59,0-1-.04-.83-.06-2.41-.19-4.18-.98-2.44-1.09-3.82-2.82-4.16-3.26-1.72-2.25-2.02-4.56-2.18-5.84-.32-2.68.27-4.76.55-5.71.49-1.64,1.13-2.78,1.68-3.74.62-1.08,1.78-3.17,3.93-5.09.36-.32,5.53-4.81,11.69-4.81,1.34,0,2.73.21,4.12.73.85.31,3.15,1.2,4.93,3.47,3.37,4.3,1.98,9.9,1.58,11.52-1.16,4.71-4.19,7.63-5.45,8.85-1.33,1.29-2.49,2.04-2.86,2.28-3.42,2.17-6.62,2.5-7.47,2.57-.45.04-.85.05-1.19.05M100.86,42.61c.42,0,.84-.02,1.25-.05,1.53-.12,4.59-.63,7.83-2.69.7-.45,1.79-1.22,2.99-2.38,1.33-1.29,4.45-4.29,5.67-9.23.2-.81.67-2.71.64-4.96-.03-2.84-.83-5.27-2.37-7.24-1.95-2.5-4.46-3.42-5.28-3.72-1.4-.51-2.88-.78-4.4-.78-2.71,0-5.54.8-8.4,2.38-2.22,1.22-3.66,2.49-3.81,2.63-2.39,2.14-3.63,4.44-4.09,5.3-.92,1.71-2.84,5.28-2.32,9.91.13,1.12.42,3.74,2.33,6.23.53.69,2.02,2.4,4.47,3.5,1.93.86,3.69.99,4.44,1.05.34.03.69.04,1.06.04h0Z"/>
            </g>
          </g>
          <g>
            <g>
              <path class="cls-5" d="M101.23,33.3v-5.28c.05-1.69,1.41-3.01,3.1-3.01s3.1,1.39,3.1,3.1-1.39,3.1-3.1,3.1c-.86,0-1.66-.34-2.25-.97l-.06-.07v3.13h-.79ZM104.33,25.79c-1.28,0-2.32,1.04-2.32,2.32s1.04,2.32,2.32,2.32,2.32-1.04,2.32-2.32-1.04-2.32-2.32-2.32Z"/>
              <path class="cls-4" d="M104.33,25.04c1.69,0,3.06,1.37,3.06,3.06s-1.37,3.06-3.06,3.06c-.85,0-1.64-.34-2.22-.96l-.13-.14v3.18h-.71v-5.17h0v-.07c.02-.8.35-1.55.93-2.11.58-.56,1.33-.87,2.14-.87M104.33,30.46c1.3,0,2.35-1.06,2.35-2.35s-1.06-2.35-2.35-2.35-2.35,1.06-2.35,2.35,1.06,2.35,2.35,2.35M104.33,24.96c-1.7,0-3.09,1.36-3.14,3.05h0v5.32h.86v-3.07c.57.6,1.38.98,2.28.98,1.73,0,3.14-1.41,3.14-3.14s-1.41-3.14-3.14-3.14h0ZM104.33,30.38c-1.26,0-2.28-1.02-2.28-2.28s1.02-2.28,2.28-2.28,2.28,1.02,2.28,2.28-1.02,2.28-2.28,2.28h0Z"/>
            </g>
            <g>
              <path class="cls-5" d="M111.67,31.2c-1.71,0-3.1-1.39-3.1-3.1s1.39-3.1,3.1-3.1c.86,0,1.66.34,2.25.97l.06.07v-3.13h.79v5.28c-.05,1.69-1.41,3.01-3.1,3.01ZM111.67,25.78c-1.28,0-2.32,1.04-2.32,2.32s1.04,2.32,2.32,2.32,2.29-1.02,2.31-2.27v-.09c-.02-1.25-1.06-2.27-2.31-2.27Z"/>
              <path class="cls-4" d="M114.73,22.94v5.17h0v.07c-.02.8-.35,1.55-.93,2.11-.58.56-1.33.87-2.14.87-1.69,0-3.06-1.37-3.06-3.06s1.37-3.06,3.06-3.06c.85,0,1.64.34,2.22.96l.13.14v-3.18h.71M111.67,30.45c1.27,0,2.33-1.04,2.35-2.31v-.09c-.02-1.27-1.08-2.31-2.35-2.31s-2.35,1.06-2.35,2.35,1.06,2.35,2.35,2.35M114.8,22.87h-.86v3.07c-.57-.6-1.38-.98-2.28-.98-1.73,0-3.14,1.41-3.14,3.14s1.41,3.14,3.14,3.14,3.09-1.36,3.14-3.05h0v-5.32h0ZM111.67,30.38c-1.26,0-2.28-1.02-2.28-2.28s1.02-2.28,2.28-2.28,2.25,1,2.28,2.24v.08c-.02,1.24-1.04,2.24-2.28,2.24h0Z"/>
            </g>
            <g>
              <path class="cls-5" d="M97.62,30.38c-1.26,0-2.28-1.02-2.28-2.28s1.02-2.28,2.28-2.28c.92,0,1.72.55,2.07,1.34h.92c-.4-1.27-1.59-2.2-3-2.2-1.73,0-3.14,1.41-3.14,3.14s1.41,3.14,3.14,3.14c1.34,0,2.48-.84,2.93-2.02h-.95c-.39.69-1.13,1.16-1.98,1.16Z"/>
              <path class="cls-4" d="M97.62,31.28c-1.75,0-3.18-1.43-3.18-3.18s1.43-3.18,3.18-3.18c1.4,0,2.61.89,3.03,2.22l.02.05h-1v-.02c-.37-.8-1.18-1.32-2.05-1.32-1.24,0-2.24,1.01-2.24,2.24s1.01,2.24,2.24,2.24c.8,0,1.55-.44,1.95-1.14v-.02h1.04l-.02.05c-.47,1.22-1.66,2.04-2.97,2.04ZM97.62,25c-1.71,0-3.1,1.39-3.1,3.1s1.39,3.1,3.1,3.1c1.26,0,2.41-.78,2.88-1.94h-.87c-.41.71-1.18,1.16-2,1.16-1.28,0-2.32-1.04-2.32-2.32s1.04-2.32,2.32-2.32c.9,0,1.72.52,2.1,1.34h.85c-.42-1.27-1.6-2.12-2.94-2.12Z"/>
            </g>
          </g>
          <g>
            <path d="M97.35,22.42l.76-2.03s.24,0,.31-.02l.8,2.06h-.31c-.02-.07-.13-.44-.18-.45-.27.02-.59-.03-.85,0-.04,0-.05,0-.07.03-.06.08-.1.32-.15.42h-.31ZM98.64,21.69l-.37-.97-.35.97h.73Z"/>
            <path d="M111.89,20.22v2.2s-.26,0-.27,0c0,0,0-.15,0-.19-.37.37-.91.27-1.03-.27-.05-.22-.05-.45,0-.67.12-.51.64-.66,1.01-.29v-.67c.08-.06.19-.08.29-.11ZM111.2,21.06c-.52.02-.5,1.05-.08,1.13.1.02.23,0,.32-.05.03-.02.15-.14.16-.17.02-.07.02-.52,0-.61-.02-.17-.24-.3-.4-.29Z"/>
            <path d="M106.75,22.42s-.24,0-.25,0c-.01-.01.02-.18-.01-.19-.04,0-.04.04-.07.07-.34.27-.78.17-.93-.25-.25-.72.19-1.69.99-1.04v-.71l.27-.08v2.2ZM106.08,21.06c-.5.02-.5.95-.16,1.1.18.08.5-.01.56-.21.02-.07.02-.51,0-.6-.02-.16-.25-.3-.4-.29Z"/>
            <path d="M110.21,21.71h-1.06c-.01.31.22.54.54.47.08-.02.21-.16.23-.16.02,0,.15.13.18.15-.43.5-1.15.28-1.22-.4-.14-1.31,1.4-1.3,1.33-.07ZM109.94,21.51c-.03-.6-.77-.6-.79,0h.79Z"/>
            <path d="M105.07,21.71h-1.03c-.06,0,.01.21.03.24.11.24.39.31.61.17.04-.02.09-.1.13-.1.01,0,.14.13.15.14.04.08-.27.24-.34.26-1.14.29-1.16-1.9-.02-1.6.23.06.47.35.47.59v.3ZM104.82,21.51c-.05-.6-.76-.6-.81,0h.81Z"/>
            <path d="M102,21.99s.22.1.2.16c-.03.12-.29.26-.4.28-.97.2-1.12-1.39-.34-1.6.24-.07.56-.03.71.2.11.15-.04.14-.13.25-.12-.1-.15-.19-.33-.21-.48-.04-.58.55-.42.89.14.3.55.31.7.02Z"/>
            <path d="M100.51,21.3c-.19-.39-.67-.28-.76.14-.12.54.32,1.07.75.54.23.11.24.18.04.33-.35.27-.85.13-1.01-.28-.24-.61.1-1.43.85-1.21.09.03.31.18.33.27,0,.05-.17.15-.2.19Z"/>
            <path d="M108.24,20.84h.39v.23h-.39v.94c0,.18.32.16.41.05,0,.29-.17.42-.46.34-.09-.02-.23-.16-.23-.25v-1.09s-.18.02-.19-.01c0-.04,0-.21,0-.22,0,0,.15,0,.19,0v-.44l.27-.08v.52Z"/>
            <path d="M102.54,20.84s.24,0,.25,0c0,0,0,.14,0,.17.1-.04.13-.12.24-.16.1-.04.22-.06.32-.03.25.05.14.15.08.32-.18-.09-.39-.1-.53.06-.02.02-.09.15-.09.16v1.07h-.27v-1.58Z"/>
            <path d="M107.5,20.84v1.58s-.29.02-.29-.03v-1.55h.29Z"/>
            <path d="M107.3,20.25c.27-.06.29.36.02.33-.18-.02-.16-.3-.02-.33Z"/>
          </g>
          <g>
            <path d="M4.34,14.78h-1.38v-.74h3.66v.74h-1.4v4.11h-.88v-4.11Z"/>
            <path d="M7.08,13.78h.89v2.09h.01c.11-.17.25-.3.44-.4.17-.1.38-.16.6-.16.6,0,1.22.4,1.22,1.52v2.06h-.88v-1.96c0-.51-.19-.89-.68-.89-.35,0-.59.23-.68.5-.03.07-.04.17-.04.27v2.09h-.89v-5.11Z"/>
            <path d="M11.82,17.39c.02.63.52.91,1.08.91.41,0,.7-.06.97-.16l.13.61c-.3.12-.72.22-1.22.22-1.14,0-1.8-.7-1.8-1.77,0-.97.59-1.88,1.71-1.88s1.51.93,1.51,1.7c0,.17-.01.29-.03.37h-2.34ZM13.36,16.77c0-.32-.14-.86-.73-.86-.55,0-.78.5-.81.86h1.54Z"/>
            <path d="M19.91,18.75c-.21.11-.67.22-1.25.22-1.54,0-2.47-.96-2.47-2.44,0-1.6,1.11-2.56,2.59-2.56.58,0,1,.12,1.18.22l-.19.7c-.23-.1-.55-.19-.95-.19-.99,0-1.7.62-1.7,1.78,0,1.06.63,1.75,1.69,1.75.36,0,.73-.07.96-.18l.14.7Z"/>
            <path d="M20.66,14.11c.32-.06.76-.1,1.35-.1.65,0,1.12.14,1.43.4.29.24.47.62.47,1.07s-.14.84-.42,1.1c-.35.35-.91.52-1.53.52-.17,0-.32,0-.43-.03v1.83h-.88v-4.78ZM21.54,16.37c.11.03.25.04.43.04.66,0,1.06-.32,1.06-.89s-.37-.83-.99-.83c-.24,0-.42.02-.51.04v1.64Z"/>
            <path d="M24.68,14.11c.39-.06.88-.1,1.41-.1.91,0,1.53.19,1.98.56.47.38.76.96.76,1.78s-.29,1.51-.76,1.93c-.48.44-1.25.66-2.19.66-.52,0-.91-.03-1.19-.06v-4.77ZM25.57,18.21c.12.02.31.02.49.02,1.15,0,1.83-.63,1.83-1.86,0-1.07-.61-1.68-1.72-1.68-.28,0-.48.02-.6.05v3.47Z"/>
            <path d="M31.06,17.93c.29.17.72.31,1.17.31.57,0,.88-.27.88-.66,0-.37-.24-.58-.86-.81-.8-.29-1.31-.71-1.31-1.41,0-.79.66-1.4,1.71-1.4.52,0,.91.12,1.16.24l-.22.71c-.17-.09-.51-.23-.96-.23-.56,0-.81.3-.81.58,0,.37.28.55.93.8.84.32,1.25.74,1.25,1.44,0,.78-.59,1.45-1.84,1.45-.51,0-1.04-.14-1.31-.3l.19-.73Z"/>
            <path d="M35.76,14.39v1h.84v.66h-.84v1.55c0,.42.12.65.45.65.15,0,.27-.02.35-.04v.68c-.12.05-.35.09-.63.09-.32,0-.6-.11-.76-.29-.19-.2-.27-.52-.27-.98v-1.65h-.5v-.66h.5v-.79l.86-.21Z"/>
            <path d="M39.24,18.89l-.06-.39h-.02c-.22.27-.58.47-1.04.47-.7,0-1.1-.51-1.1-1.04,0-.88.78-1.33,2.08-1.32v-.06c0-.23-.09-.61-.71-.61-.35,0-.7.11-.94.26l-.17-.58c.26-.16.71-.31,1.27-.31,1.12,0,1.45.71,1.45,1.47v1.27c0,.32.01.63.05.84h-.8ZM39.13,17.18c-.63-.01-1.22.12-1.22.65,0,.35.22.5.5.5.35,0,.61-.23.69-.48.02-.06.03-.14.03-.19v-.48Z"/>
            <path d="M40.93,16.43c0-.4,0-.74-.03-1.04h.78l.04.52h.02c.15-.27.53-.6,1.11-.6.61,0,1.24.4,1.24,1.5v2.08h-.88v-1.98c0-.5-.19-.88-.67-.88-.35,0-.6.25-.69.52-.03.08-.04.19-.04.29v2.06h-.89v-2.46Z"/>
            <path d="M48.27,13.78v4.12c0,.36.01.75.03.99h-.79l-.04-.55h-.01c-.21.39-.63.63-1.14.63-.83,0-1.5-.71-1.5-1.79,0-1.17.73-1.87,1.57-1.87.48,0,.83.2.99.46h.01v-1.98h.88ZM47.39,16.85c0-.07,0-.16-.02-.23-.08-.35-.36-.63-.76-.63-.57,0-.88.5-.88,1.16s.32,1.11.88,1.11c.36,0,.68-.24.76-.63.02-.08.03-.17.03-.26v-.52Z"/>
            <path d="M51.19,18.89l-.06-.39h-.02c-.22.27-.58.47-1.04.47-.7,0-1.1-.51-1.1-1.04,0-.88.78-1.33,2.08-1.32v-.06c0-.23-.09-.61-.71-.61-.35,0-.7.11-.94.26l-.17-.58c.26-.16.71-.31,1.27-.31,1.12,0,1.45.71,1.45,1.47v1.27c0,.32.01.63.05.84h-.8ZM51.08,17.18c-.63-.01-1.22.12-1.22.65,0,.35.22.5.5.5.35,0,.61-.23.69-.48.02-.06.03-.14.03-.19v-.48Z"/>
            <path d="M52.87,16.52c0-.47,0-.81-.03-1.13h.77l.03.67h.03c.17-.5.58-.75.96-.75.09,0,.14,0,.21.02v.83c-.07-.01-.15-.03-.26-.03-.42,0-.71.27-.79.67-.01.08-.03.17-.03.27v1.81h-.88v-2.37Z"/>
            <path d="M58.6,13.78v4.12c0,.36.01.75.03.99h-.79l-.04-.55h-.01c-.21.39-.63.63-1.14.63-.83,0-1.5-.71-1.5-1.79,0-1.17.73-1.87,1.57-1.87.48,0,.83.2.99.46h.01v-1.98h.88ZM57.71,16.85c0-.07,0-.16-.02-.23-.08-.35-.36-.63-.76-.63-.57,0-.88.5-.88,1.16s.32,1.11.88,1.11c.36,0,.68-.24.76-.63.02-.08.03-.17.03-.26v-.52Z"/>
            <path d="M59.5,18.08c.2.12.58.25.9.25.39,0,.56-.16.56-.39s-.14-.36-.58-.51c-.68-.24-.97-.61-.96-1.02,0-.62.51-1.1,1.32-1.1.39,0,.73.1.93.21l-.17.63c-.15-.09-.43-.2-.74-.2s-.49.15-.49.37.17.33.61.49c.63.23.93.55.93,1.07,0,.63-.5,1.09-1.42,1.09-.42,0-.81-.1-1.06-.24l.17-.64Z"/>
            <path d="M68.37,16.42c0,1.63-.99,2.55-2.32,2.55s-2.23-1.04-2.23-2.47.93-2.54,2.3-2.54,2.25,1.07,2.25,2.45ZM64.75,16.49c0,.99.5,1.77,1.34,1.77s1.34-.79,1.34-1.81c0-.91-.45-1.78-1.34-1.78s-1.34.81-1.34,1.81Z"/>
            <path d="M73.88,14.57c-.17-.09-.42-.17-.72-.17-.61,0-.81.37-.81.83v.14h2.09v3.5h-.88v-2.84h-1.19v2.84h-.89v-2.84h-1.29v2.84h-.88v-2.84h-.47v-.66h.47v-.1c0-.42.12-.85.44-1.15.22-.21.54-.35.98-.35.24,0,.47.07.61.14l-.21.64c-.09-.05-.24-.09-.37-.09-.17,0-.29.06-.37.15-.14.15-.19.4-.19.65v.12h1.29v-.17c0-.94.66-1.52,1.7-1.52.33,0,.72.09.93.2l-.21.67Z"/>
            <path d="M77.96,18.78c-.19.09-.55.18-.99.18-1.09,0-1.8-.7-1.8-1.78s.72-1.87,1.95-1.87c.32,0,.65.07.86.17l-.16.66c-.14-.06-.35-.14-.67-.14-.68,0-1.08.5-1.07,1.14,0,.72.47,1.13,1.07,1.13.31,0,.52-.06.7-.14l.12.65Z"/>
            <path d="M79.17,17.39c.02.63.52.91,1.08.91.41,0,.7-.06.97-.16l.13.61c-.3.12-.72.22-1.22.22-1.14,0-1.8-.7-1.8-1.77,0-.97.59-1.88,1.71-1.88s1.51.93,1.51,1.7c0,.17-.01.29-.03.37h-2.34ZM80.71,16.77c0-.32-.14-.86-.73-.86-.55,0-.78.5-.81.86h1.54Z"/>
          </g>
          <g>
            <path d="M14.32,27.78c-.14.07-.45.14-.85.14-1.15,0-1.74-.72-1.74-1.66,0-1.14.81-1.77,1.82-1.77.39,0,.69.08.82.15l-.15.6c-.15-.06-.37-.12-.63-.12-.6,0-1.06.36-1.06,1.1,0,.67.4,1.09,1.07,1.09.23,0,.48-.05.63-.11l.11.59Z"/>
            <path d="M15.51,24.59c.23-.04.56-.07,1.02-.07s.79.09,1.02.27c.21.17.36.44.36.77s-.11.6-.31.79c-.26.24-.64.35-1.08.35-.1,0-.19,0-.26-.01v1.19h-.75v-3.28ZM16.26,26.1c.06.01.14.02.25.02.4,0,.65-.2.65-.54,0-.31-.21-.49-.59-.49-.15,0-.26.01-.31.03v.98Z"/>
            <path d="M19.08,24.59c.28-.04.64-.07,1.02-.07.63,0,1.04.11,1.36.36.35.26.56.67.56,1.25,0,.64-.23,1.08-.55,1.35-.35.29-.88.43-1.54.43-.39,0-.67-.02-.85-.05v-3.27ZM19.83,27.31c.06.01.17.01.26.01.68,0,1.13-.37,1.13-1.17,0-.69-.4-1.06-1.05-1.06-.17,0-.28.01-.34.03v2.18Z"/>
            <path d="M24.9,24.59c.23-.04.56-.07,1.02-.07s.79.09,1.02.27c.21.17.36.44.36.77s-.11.6-.31.79c-.26.24-.64.35-1.08.35-.1,0-.19,0-.26-.01v1.19h-.75v-3.28ZM25.65,26.1c.06.01.14.02.25.02.4,0,.65-.2.65-.54,0-.31-.21-.49-.59-.49-.15,0-.26.01-.31.03v.98Z"/>
            <path d="M28.47,24.59c.24-.04.6-.07,1-.07.49,0,.84.07,1.08.26.2.16.31.39.31.7,0,.42-.3.72-.59.82h0c.23.11.36.33.44.64.1.38.21.81.27.94h-.77c-.05-.09-.13-.37-.23-.78-.09-.41-.23-.53-.54-.53h-.23v1.31h-.75v-3.28ZM29.21,26.02h.3c.38,0,.6-.19.6-.48,0-.31-.21-.46-.55-.46-.18,0-.29.01-.34.02v.92Z"/>
            <path d="M35.12,26.18c0,1.09-.66,1.75-1.63,1.75s-1.57-.75-1.57-1.69c0-1,.64-1.74,1.62-1.74s1.58.77,1.58,1.68ZM32.71,26.22c0,.65.31,1.11.81,1.11s.8-.48.8-1.13c0-.6-.29-1.11-.8-1.11s-.8.48-.8,1.13Z"/>
            <path d="M37.06,27.87l-1.07-3.33h.82l.4,1.41c.11.39.22.78.3,1.19h.01c.08-.4.19-.79.3-1.18l.42-1.42h.8l-1.12,3.33h-.88Z"/>
            <path d="M40.87,24.55v3.33h-.76v-3.33h.76Z"/>
            <path d="M42.21,24.59c.28-.04.64-.07,1.02-.07.63,0,1.04.11,1.36.36.35.26.56.67.56,1.25,0,.64-.23,1.08-.55,1.35-.35.29-.88.43-1.54.43-.39,0-.67-.02-.85-.05v-3.27ZM42.97,27.31c.06.01.17.01.26.01.68,0,1.13-.37,1.13-1.17,0-.69-.4-1.06-1.05-1.06-.17,0-.28.01-.34.03v2.18Z"/>
            <path d="M48.33,26.47h-1.22v.79h1.37v.62h-2.12v-3.33h2.05v.62h-1.3v.69h1.22v.61Z"/>
            <path d="M49.68,24.59c.24-.04.6-.07,1-.07.49,0,.84.07,1.08.26.2.16.31.39.31.7,0,.42-.3.72-.59.82h0c.23.11.36.33.44.64.1.38.21.81.27.94h-.77c-.05-.09-.13-.37-.23-.78-.09-.41-.23-.53-.54-.53h-.23v1.31h-.75v-3.28ZM50.43,26.02h.3c.38,0,.6-.19.6-.48,0-.31-.21-.46-.55-.46-.18,0-.29.01-.34.02v.92Z"/>
            <path d="M53.22,25.88c0-.27.18-.45.44-.45s.43.18.44.45c0,.26-.18.45-.44.45s-.44-.19-.44-.45ZM53.22,27.48c0-.26.18-.45.44-.45s.43.19.44.45c0,.26-.18.45-.44.45s-.44-.19-.44-.45Z"/>
            <path d="M58.19,27.87v-.77h-1.42v-.49l1.21-1.96h.92v1.88h.39v.56h-.39v.77h-.71ZM58.19,26.55v-.71c0-.19,0-.39.02-.6h-.02c-.1.21-.19.4-.3.6l-.43.7h0s.72,0,.72,0Z"/>
            <path d="M61.25,25.33h0l-.61.29-.12-.56.85-.39h.62v3.21h-.73v-2.54Z"/>
            <path d="M64.69,25.33h0l-.61.29-.12-.56.85-.39h.62v3.21h-.73v-2.54Z"/>
            <path d="M67.12,27.03c0-.39.22-.65.57-.8h0c-.31-.17-.46-.43-.46-.72,0-.54.49-.9,1.13-.9.75,0,1.06.43,1.06.82,0,.28-.15.55-.46.71h0c.31.13.59.4.59.81,0,.58-.49.97-1.23.97-.81,0-1.19-.46-1.19-.89ZM68.78,27.01c0-.28-.21-.45-.5-.53-.25.07-.39.25-.39.48,0,.23.17.45.45.45.27,0,.44-.17.44-.4ZM67.93,25.49c0,.22.2.36.45.43.17-.05.33-.21.33-.41s-.11-.4-.39-.4c-.26,0-.39.17-.39.37Z"/>
            <path d="M70.61,27.87v-.45l.41-.38c.7-.63,1.04-.99,1.05-1.36,0-.26-.16-.47-.53-.47-.28,0-.52.14-.69.27l-.21-.54c.24-.18.62-.33,1.05-.33.73,0,1.13.42,1.13,1.01,0,.54-.39.97-.85,1.38l-.3.25h0s1.21,0,1.21,0v.62h-2.28Z"/>
          </g>
          <g>
            <path d="M28.01,33.96v-.45l.41-.38c.7-.63,1.04-.99,1.05-1.36,0-.26-.16-.47-.53-.47-.28,0-.52.14-.69.27l-.21-.54c.24-.18.62-.33,1.05-.33.73,0,1.13.42,1.13,1.01,0,.54-.39.97-.85,1.38l-.3.25h0s1.21,0,1.21,0v.62h-2.28Z"/>
            <path d="M33.82,32.35c0,.99-.4,1.67-1.22,1.67s-1.19-.75-1.2-1.65c0-.93.39-1.66,1.22-1.66s1.19.77,1.19,1.64ZM32.15,32.37c0,.74.17,1.09.46,1.09s.45-.37.45-1.1-.15-1.09-.45-1.09c-.28,0-.46.35-.46,1.1Z"/>
            <path d="M34.88,33.96v-.45l.41-.38c.7-.63,1.04-.99,1.05-1.36,0-.26-.16-.47-.53-.47-.28,0-.52.14-.69.27l-.21-.54c.24-.18.62-.33,1.05-.33.73,0,1.13.42,1.13,1.01,0,.54-.39.97-.85,1.38l-.3.25h0s1.21,0,1.21,0v.62h-2.28Z"/>
            <path d="M39.65,33.96v-.77h-1.42v-.49l1.21-1.96h.92v1.88h.39v.56h-.39v.77h-.71ZM39.65,32.64v-.71c0-.19,0-.39.02-.6h-.02c-.1.21-.19.4-.3.6l-.43.7h0s.72,0,.72,0Z"/>
            <path d="M42.99,32.42v.5h-1.29v-.5h1.29Z"/>
            <path d="M44.04,33.96v-.45l.41-.38c.7-.63,1.04-.99,1.05-1.36,0-.26-.16-.47-.53-.47-.28,0-.52.14-.69.27l-.21-.54c.24-.18.62-.33,1.05-.33.73,0,1.13.42,1.13,1.01,0,.54-.39.97-.85,1.38l-.3.25h0s1.21,0,1.21,0v.62h-2.28Z"/>
            <path d="M49.85,32.35c0,.99-.4,1.67-1.22,1.67s-1.19-.75-1.2-1.65c0-.93.39-1.66,1.22-1.66s1.19.77,1.19,1.64ZM48.19,32.37c0,.74.17,1.09.46,1.09s.45-.37.45-1.1-.15-1.09-.45-1.09c-.28,0-.46.35-.46,1.1Z"/>
            <path d="M50.92,33.96v-.45l.41-.38c.7-.63,1.04-.99,1.05-1.36,0-.26-.16-.47-.53-.47-.28,0-.52.14-.69.27l-.21-.54c.24-.18.62-.33,1.05-.33.73,0,1.13.42,1.13,1.01,0,.54-.39.97-.85,1.38l-.3.25h0s1.21,0,1.21,0v.62h-2.28Z"/>
            <path d="M56.4,31.29c-.08,0-.17,0-.29,0-.67.05-.96.4-1.05.77h.01c.16-.16.38-.26.68-.26.54,0,.99.38.99,1.05s-.49,1.16-1.19,1.16c-.85,0-1.27-.64-1.27-1.4,0-.6.22-1.11.57-1.43.32-.29.74-.45,1.24-.47.14,0,.23,0,.3,0v.58ZM55.99,32.9c0-.3-.16-.55-.48-.55-.2,0-.37.12-.44.29-.02.04-.03.1-.03.19.01.34.18.65.52.65.27,0,.43-.24.43-.57Z"/>
          </g>
          <g>
            <path class="cls-14" d="M10.42,38.86l.33,1.21c.07.27.14.51.18.76h.02c.06-.24.14-.5.22-.76l.4-1.22h.38l.38,1.19c.09.29.16.54.22.78h.02c.04-.24.11-.49.19-.78l.35-1.2h.44l-.79,2.39h-.41l-.38-1.14c-.09-.27-.16-.5-.22-.79h-.01c-.06.29-.14.53-.22.79l-.4,1.14h-.41l-.74-2.39h.46Z"/>
            <path class="cls-14" d="M14.94,38.86l.33,1.21c.07.27.14.51.18.76h.02c.06-.24.14-.5.22-.76l.4-1.22h.38l.38,1.19c.09.29.16.54.22.78h.02c.04-.24.11-.49.19-.78l.35-1.2h.44l-.79,2.39h-.41l-.38-1.14c-.09-.27-.16-.5-.22-.79h-.01c-.06.29-.14.53-.22.79l-.4,1.14h-.41l-.74-2.39h.46Z"/>
            <path class="cls-14" d="M19.46,38.86l.33,1.21c.07.27.14.51.18.76h.02c.06-.24.14-.5.22-.76l.4-1.22h.38l.38,1.19c.09.29.16.54.22.78h.02c.04-.24.11-.49.19-.78l.35-1.2h.44l-.79,2.39h-.41l-.38-1.14c-.09-.27-.16-.5-.22-.79h-.01c-.06.29-.14.53-.22.79l-.4,1.14h-.41l-.74-2.39h.46Z"/>
            <path class="cls-14" d="M23.44,40.99c0-.18.13-.31.31-.31s.3.13.3.31-.12.31-.31.31c-.18,0-.3-.13-.3-.31Z"/>
            <path class="cls-14" d="M27.07,41.16c-.12.06-.38.14-.71.14-.74,0-1.23-.49-1.23-1.22s.52-1.27,1.32-1.27c.26,0,.5.06.62.12l-.1.34c-.11-.06-.27-.11-.52-.11-.56,0-.87.4-.87.9,0,.55.37.89.85.89.25,0,.42-.06.55-.12l.08.33Z"/>
            <path class="cls-14" d="M28.31,39.64c0-.31-.01-.55-.02-.78h.4l.02.41h.01c.18-.29.47-.46.88-.46.6,0,1.04.49,1.04,1.21,0,.86-.54,1.28-1.12,1.28-.33,0-.61-.14-.76-.38h-.01v1.3h-.44v-2.59ZM28.76,40.28c0,.06.01.12.02.18.08.3.35.51.67.51.47,0,.75-.38.75-.92,0-.48-.26-.89-.73-.89-.31,0-.59.21-.68.54-.02.05-.03.12-.03.18v.41Z"/>
            <path class="cls-14" d="M34.05,37.74v2.89c0,.21,0,.45.02.62h-.4l-.02-.41h-.01c-.14.27-.44.47-.84.47-.6,0-1.05-.49-1.05-1.21,0-.79.5-1.28,1.1-1.28.38,0,.63.17.74.37h.01v-1.43h.45ZM33.61,39.83c0-.05,0-.13-.02-.18-.07-.28-.31-.5-.65-.5-.46,0-.74.39-.74.92,0,.48.24.88.73.88.3,0,.57-.19.66-.52.02-.06.02-.12.02-.19v-.41Z"/>
            <path class="cls-14" d="M35.45,40.81c.13.08.37.17.59.17.33,0,.48-.16.48-.36,0-.21-.13-.32-.46-.44-.44-.15-.65-.39-.65-.68,0-.39.32-.7.85-.7.25,0,.47.07.61.15l-.11.32c-.1-.06-.27-.14-.5-.14-.26,0-.41.15-.41.33,0,.2.15.29.47.4.43.16.65.37.65.72,0,.42-.34.72-.92.72-.27,0-.52-.06-.69-.16l.11-.33Z"/>
            <path class="cls-14" d="M38.78,38.17v.69h.64v.33h-.64v1.29c0,.3.09.46.34.46.12,0,.2-.01.26-.03l.02.33c-.09.03-.22.06-.4.06-.21,0-.38-.06-.48-.18-.13-.13-.17-.34-.17-.62v-1.3h-.38v-.33h.38v-.57l.44-.11Z"/>
            <path class="cls-14" d="M42.01,41.25l-.04-.3h-.02c-.14.19-.4.36-.75.36-.5,0-.75-.34-.75-.69,0-.58.53-.89,1.48-.89v-.05c0-.2-.06-.55-.56-.55-.23,0-.47.07-.64.18l-.1-.29c.2-.13.5-.21.81-.21.75,0,.94.5.94.98v.89c0,.21.01.41.04.57h-.41ZM41.94,40.03c-.49,0-1.04.07-1.04.54,0,.28.19.41.42.41.32,0,.52-.2.6-.4.02-.04.03-.09.03-.14v-.41Z"/>
            <path class="cls-14" d="M43.81,39.51c0-.25,0-.45-.02-.65h.4l.03.39h.01c.12-.23.41-.45.81-.45.34,0,.87.2.87,1.02v1.43h-.45v-1.38c0-.39-.15-.71-.57-.71-.3,0-.52.2-.6.44-.02.05-.03.13-.03.2v1.44h-.45v-1.74Z"/>
            <path class="cls-14" d="M49.48,37.74v2.89c0,.21,0,.45.02.62h-.4l-.02-.41h-.01c-.14.27-.44.47-.84.47-.6,0-1.05-.49-1.05-1.21,0-.79.5-1.28,1.1-1.28.38,0,.63.17.74.37h.01v-1.43h.45ZM49.03,39.83c0-.05,0-.13-.02-.18-.07-.28-.31-.5-.65-.5-.46,0-.74.39-.74.92,0,.48.24.88.73.88.3,0,.57-.19.66-.52.02-.06.02-.12.02-.19v-.41Z"/>
            <path class="cls-14" d="M52.31,41.25l-.04-.3h-.02c-.14.19-.4.36-.75.36-.5,0-.75-.34-.75-.69,0-.58.53-.89,1.48-.89v-.05c0-.2-.06-.55-.56-.55-.23,0-.47.07-.64.18l-.1-.29c.2-.13.5-.21.81-.21.75,0,.94.5.94.98v.89c0,.21.01.41.04.57h-.41ZM52.24,40.03c-.49,0-1.04.07-1.04.54,0,.28.19.41.42.41.32,0,.52-.2.6-.4.02-.04.03-.09.03-.14v-.41Z"/>
            <path class="cls-14" d="M54.11,39.61c0-.28,0-.52-.02-.75h.39l.02.47h.02c.11-.32.38-.52.68-.52.05,0,.09,0,.13.01v.41s-.09-.01-.15-.01c-.32,0-.54.23-.6.56-.01.06-.02.13-.02.2v1.27h-.44v-1.64Z"/>
            <path class="cls-14" d="M58.57,37.74v2.89c0,.21,0,.45.02.62h-.4l-.02-.41h-.01c-.14.27-.44.47-.84.47-.6,0-1.05-.49-1.05-1.21,0-.79.5-1.28,1.1-1.28.38,0,.63.17.74.37h.01v-1.43h.45ZM58.12,39.83c0-.05,0-.13-.02-.18-.07-.28-.31-.5-.65-.5-.46,0-.74.39-.74.92,0,.48.24.88.73.88.3,0,.57-.19.66-.52.02-.06.02-.12.02-.19v-.41Z"/>
            <path class="cls-14" d="M59.97,40.81c.13.08.37.17.59.17.33,0,.48-.16.48-.36,0-.21-.13-.32-.46-.44-.44-.15-.65-.39-.65-.68,0-.39.32-.7.85-.7.25,0,.47.07.61.15l-.11.32c-.1-.06-.27-.14-.5-.14-.26,0-.41.15-.41.33,0,.2.15.29.47.4.43.16.65.37.65.72,0,.42-.34.72-.92.72-.27,0-.52-.06-.69-.16l.11-.33Z"/>
            <path class="cls-14" d="M62.6,40.99c0-.18.13-.31.31-.31s.3.13.3.31-.12.31-.31.31c-.18,0-.3-.13-.3-.31Z"/>
            <path class="cls-14" d="M66.23,41.16c-.12.06-.38.14-.71.14-.74,0-1.23-.49-1.23-1.22s.52-1.27,1.32-1.27c.26,0,.5.06.62.12l-.1.34c-.11-.06-.27-.11-.52-.11-.56,0-.87.4-.87.9,0,.55.37.89.85.89.25,0,.42-.06.55-.12l.08.33Z"/>
            <path class="cls-14" d="M69.67,40.04c0,.88-.63,1.27-1.23,1.27-.67,0-1.18-.47-1.18-1.23,0-.8.54-1.27,1.22-1.27s1.19.5,1.19,1.23ZM67.71,40.06c0,.52.31.92.75.92s.75-.39.75-.93c0-.4-.21-.92-.74-.92s-.76.47-.76.93Z"/>
            <path class="cls-14" d="M70.95,39.51c0-.25,0-.45-.02-.65h.39l.02.39h.02c.14-.23.37-.44.77-.44.34,0,.59.2.7.48h.01c.08-.13.17-.24.27-.31.15-.11.31-.17.54-.17.33,0,.81.21.81,1.04v1.41h-.44v-1.35c0-.46-.17-.74-.53-.74-.25,0-.45.18-.53.4-.02.06-.04.14-.04.22v1.48h-.44v-1.43c0-.38-.17-.66-.51-.66-.28,0-.48.22-.55.43-.03.06-.04.14-.04.21v1.44h-.44v-1.74Z"/>
          </g>
          <rect class="cls-1" x="83.91" y="11.57" width=".44" height="33.06"/>
          <g>
            <path d="M101.75,36.27h-.78v.61h.88v.31h-1.26v-2.08h1.21v.31h-.83v.54h.78v.31Z"/>
            <path d="M102.62,35.69l.24.76c.04.13.07.25.1.38h0c.03-.12.06-.24.1-.38l.24-.76h.4l-.57,1.5h-.37l-.56-1.5h.41Z"/>
            <path d="M104.43,36.55c0,.27.22.39.46.39.18,0,.3-.02.42-.07l.06.26c-.13.05-.31.09-.52.09-.49,0-.77-.3-.77-.76,0-.42.25-.81.73-.81s.65.4.65.73c0,.07,0,.13-.01.16h-1.01ZM105.09,36.29c0-.14-.06-.37-.31-.37-.23,0-.33.21-.35.37h.66Z"/>
            <path d="M106,36.14c0-.17,0-.32-.01-.45h.33l.02.23h0c.06-.12.23-.26.48-.26.26,0,.53.17.53.65v.89h-.38v-.85c0-.22-.08-.38-.29-.38-.15,0-.26.11-.3.22-.01.03-.02.08-.02.12v.88h-.38v-1.06Z"/>
            <path d="M108.44,35.26v.43h.36v.28h-.36v.66c0,.18.05.28.19.28.06,0,.11,0,.15-.02v.29s-.15.04-.27.04c-.14,0-.26-.05-.33-.12-.08-.09-.12-.22-.12-.42v-.71h-.22v-.28h.22v-.34l.37-.09Z"/>
          </g>
        </g>
        <g>
          <path class="cls-14" d="M15.21,3.96v-1.17h2.04v5.38h-1.31V3.96h-.73Z"/>
          <path class="cls-14" d="M18.82,6.97c.48-.4.86-.72,1.14-.98s.51-.52.7-.8c.19-.28.29-.55.29-.82,0-.2-.05-.36-.14-.47-.09-.11-.23-.17-.42-.17s-.33.07-.44.21c-.11.14-.16.34-.16.59h-1.22c0-.42.1-.77.27-1.05.17-.28.39-.49.67-.62s.58-.2.92-.2c.58,0,1.03.15,1.32.45.3.3.45.69.45,1.17,0,.53-.18,1.01-.54,1.46s-.82.89-1.37,1.31h1.99v1.02h-3.7v-.94c.17-.13.24-.19.23-.18Z"/>
          <path class="cls-14" d="M23.53,8.03c-.14-.13-.21-.29-.21-.48s.07-.36.21-.49c.14-.13.32-.2.54-.2s.39.07.53.2.21.3.21.49-.07.35-.21.48c-.14.13-.32.2-.53.2s-.4-.06-.54-.2Z"/>
          <path class="cls-14" d="M26.13,6.97c.48-.4.86-.72,1.14-.98s.51-.52.7-.8c.19-.28.29-.55.29-.82,0-.2-.05-.36-.14-.47-.09-.11-.23-.17-.42-.17s-.33.07-.44.21c-.11.14-.16.34-.16.59h-1.22c0-.42.1-.77.27-1.05.17-.28.39-.49.67-.62s.58-.2.92-.2c.58,0,1.03.15,1.32.45.3.3.45.69.45,1.17,0,.53-.18,1.01-.54,1.46s-.82.89-1.37,1.31h1.99v1.02h-3.7v-.94c.17-.13.24-.19.23-.18Z"/>
          <path class="cls-14" d="M32.99,4.2c.22-.4.53-.71.92-.94s.84-.33,1.34-.33c.61,0,1.14.16,1.58.49.44.32.73.77.88,1.33h-1.38c-.1-.22-.25-.38-.44-.49-.19-.11-.4-.17-.64-.17-.39,0-.7.14-.94.41-.24.27-.36.63-.36,1.08s.12.81.36,1.08c.24.27.55.41.94.41.24,0,.46-.06.64-.17.19-.11.33-.28.44-.49h1.38c-.15.56-.44,1-.88,1.32-.44.32-.96.48-1.58.48-.5,0-.95-.11-1.34-.33-.4-.22-.7-.53-.92-.93-.22-.4-.33-.85-.33-1.36s.11-.97.33-1.37Z"/>
          <path class="cls-14" d="M42.73,5.48c-.14.25-.35.45-.63.6-.29.15-.64.23-1.06.23h-.78v1.86h-1.26V2.99h2.04c.41,0,.76.07,1.05.21s.5.34.64.59c.14.25.21.54.21.86,0,.3-.07.57-.21.82ZM41.48,5.14c.12-.11.18-.27.18-.48s-.06-.37-.18-.48c-.12-.11-.3-.17-.54-.17h-.69v1.3h.69c.24,0,.42-.06.54-.17Z"/>
          <path class="cls-14" d="M47.48,3.32c.41.22.72.52.95.91.22.39.33.84.33,1.35s-.11.96-.33,1.35-.54.7-.95.91-.89.32-1.43.32h-1.94V2.99h1.94c.54,0,1.02.11,1.43.32ZM47.08,6.68c.27-.26.4-.63.4-1.1s-.13-.85-.4-1.11c-.26-.27-.64-.4-1.11-.4h-.6v3.01h.6c.48,0,.85-.13,1.11-.39Z"/>
          <path class="cls-14" d="M52.17,4.2c.22-.4.53-.71.92-.94s.84-.33,1.34-.33c.61,0,1.14.16,1.58.49.44.32.73.77.88,1.33h-1.38c-.1-.22-.25-.38-.44-.49-.19-.11-.4-.17-.64-.17-.39,0-.7.14-.94.41-.24.27-.36.63-.36,1.08s.12.81.36,1.08c.24.27.55.41.94.41.24,0,.46-.06.64-.17.19-.11.33-.28.44-.49h1.38c-.15.56-.44,1-.88,1.32-.44.32-.96.48-1.58.48-.5,0-.95-.11-1.34-.33-.4-.22-.7-.53-.92-.93-.22-.4-.33-.85-.33-1.36s.11-.97.33-1.37Z"/>
          <path class="cls-14" d="M60.82,8.16l-1.08-1.95h-.3v1.95h-1.26V2.99h2.11c.41,0,.75.07,1.04.21.29.14.5.34.64.59.14.25.21.52.21.83,0,.34-.1.65-.29.92-.19.27-.48.46-.86.57l1.19,2.05h-1.42ZM59.44,5.32h.78c.23,0,.4-.06.52-.17.12-.11.17-.27.17-.48s-.06-.35-.17-.46c-.12-.11-.29-.17-.52-.17h-.78v1.28Z"/>
          <path class="cls-14" d="M64.76,4v1.05h1.69v.97h-1.69v1.13h1.91v1.01h-3.17V2.99h3.17v1.01h-1.91Z"/>
          <path class="cls-14" d="M71.37,3.32c.41.22.72.52.95.91.22.39.33.84.33,1.35s-.11.96-.33,1.35-.54.7-.95.91-.89.32-1.43.32h-1.94V2.99h1.94c.54,0,1.02.11,1.43.32ZM70.97,6.68c.27-.26.4-.63.4-1.1s-.13-.85-.4-1.11c-.26-.27-.64-.4-1.11-.4h-.6v3.01h.6c.48,0,.85-.13,1.11-.39Z"/>
          <path class="cls-14" d="M75.13,2.99v5.17h-1.26V2.99h1.26Z"/>
          <path class="cls-14" d="M80.28,2.99v1.01h-1.37v4.16h-1.26v-4.16h-1.37v-1.01h4Z"/>
          <path class="cls-14" d="M87.99,2.99v5.17h-1.26v-2.13h-1.96v2.13h-1.26V2.99h1.26v2.03h1.96v-2.03h1.26Z"/>
          <path class="cls-14" d="M90.52,7.88c-.41-.23-.73-.54-.96-.95-.24-.41-.36-.86-.36-1.37s.12-.96.36-1.36.56-.72.96-.94c.41-.23.85-.34,1.34-.34s.93.11,1.34.34c.41.23.72.54.96.94s.35.86.35,1.36-.12.96-.35,1.37c-.24.4-.55.72-.96.95s-.85.34-1.33.34-.93-.11-1.34-.34ZM92.84,6.65c.25-.28.37-.64.37-1.09s-.12-.82-.37-1.09c-.25-.27-.58-.41-.99-.41s-.75.13-1,.41c-.25.27-.37.64-.37,1.1s.12.82.37,1.09c.25.27.58.41,1,.41s.74-.14.99-.41Z"/>
          <path class="cls-14" d="M96.95,2.99v3.09c0,.31.08.55.23.71.15.17.38.25.67.25s.52-.08.68-.25.24-.41.24-.71v-3.09h1.26v3.09c0,.46-.1.85-.29,1.17s-.46.56-.79.72c-.33.16-.7.24-1.11.24s-.77-.08-1.09-.24c-.32-.16-.58-.4-.76-.72-.19-.32-.28-.71-.28-1.18v-3.09h1.26Z"/>
          <path class="cls-14" d="M104.06,8.16l-1.08-1.95h-.3v1.95h-1.26V2.99h2.11c.41,0,.75.07,1.04.21.29.14.5.34.64.59.14.25.21.52.21.83,0,.34-.1.65-.29.92-.19.27-.48.46-.86.57l1.19,2.05h-1.42ZM102.68,5.32h.78c.23,0,.4-.06.52-.17.12-.11.17-.27.17-.48s-.06-.35-.17-.46c-.12-.11-.29-.17-.52-.17h-.78v1.28Z"/>
          <path class="cls-14" d="M107.59,8.03c-.3-.12-.54-.3-.72-.54-.18-.24-.27-.53-.28-.87h1.34c.02.19.08.34.2.44s.26.15.44.15.33-.04.44-.13c.11-.08.16-.2.16-.36,0-.13-.04-.23-.13-.32-.09-.08-.19-.15-.32-.21-.12-.05-.3-.12-.53-.18-.33-.1-.61-.21-.82-.31-.21-.1-.39-.26-.54-.46-.15-.2-.23-.46-.23-.79,0-.48.17-.86.52-1.13s.8-.41,1.36-.41,1.03.14,1.38.41.54.65.56,1.14h-1.36c0-.17-.07-.3-.18-.39-.11-.1-.26-.14-.44-.14-.15,0-.27.04-.37.12-.09.08-.14.2-.14.35,0,.17.08.3.24.39.16.09.4.19.74.3.33.11.6.22.81.32.21.1.39.25.54.45.15.2.23.45.23.76s-.07.56-.22.8c-.15.24-.37.43-.65.57-.29.14-.62.21-1.01.21s-.72-.06-1.02-.18Z"/>
        </g>
      </g>
    </g>
  </g>
</svg>