<svg id="Capa_1" enable-background="new 0 0 512 512" height="512" viewBox="0 0 512 512" width="512" xmlns="http://www.w3.org/2000/svg"><g><path d="m371.749 106.42h-14.271v-15.143c0-8.17-6.647-14.817-14.818-14.817h-56.941v-16.428c0-8.713-7.088-15.801-15.801-15.801h-6.41v-36.723c0-4.147-3.361-7.508-7.508-7.508s-7.508 3.361-7.508 7.508v36.723h-6.41c-8.713 0-15.801 7.088-15.801 15.801v16.427h-11.582c-4.147 0-7.508 3.361-7.508 7.508s3.361 7.508 7.508 7.508h127.763v14.944h-172.924v-14.943h10.009c4.147 0 7.508-3.361 7.508-7.508s-3.361-7.508-7.508-7.508h-10.207c-8.171 0-14.818 6.647-14.818 14.817v15.144h-14.271c-8.171 0-14.818 6.647-14.818 14.817v15.342c0 8.171 6.647 14.818 14.818 14.818h5.139v15.143c0 8.171 6.647 14.818 14.818 14.818h3.332v15.145c0 8.17 6.646 14.816 14.816 14.816h7.615v15.143c0 8.171 6.647 14.818 14.818 14.818h1.537c2.117 4.815 5.504 12.903 7.784 20.248 2.194 7.077 7.892 12.229 14.843 13.821l-10.223 228.806c-.092 2.047.658 4.044 2.075 5.525 1.416 1.481 3.377 2.319 5.426 2.319h67.54c2.049 0 4.01-.838 5.426-2.319 1.417-1.481 2.167-3.478 2.075-5.525l-6.231-139.453c-.185-4.141-3.691-7.377-7.836-7.165-4.142.185-7.351 3.693-7.165 7.836l5.879 131.609h-51.836l9.879-221.11h32.078l2.465 55.145c.186 4.142 3.711 7.37 7.836 7.165 4.142-.185 7.351-3.693 7.165-7.836l-2.458-54.999c6.952-1.591 12.649-6.743 14.843-13.82 2.28-7.346 5.667-15.433 7.784-20.249h1.537c8.171 0 14.818-6.647 14.818-14.818v-15.143h7.613c8.171 0 14.818-6.647 14.818-14.818v-15.143h3.332c8.171 0 14.818-6.647 14.818-14.818v-15.143h5.139c8.171 0 14.818-6.647 14.818-14.818v-15.342c-.001-8.169-6.648-14.816-14.819-14.816zm-101.046-30.433h-29.405v-15.955c0-.432.352-.784.784-.784h27.837c.432 0 .784.352.784.784zm16.846 181.093c-.701 2.259-2.74 3.777-5.074 3.777h-52.949c-2.334 0-4.373-1.517-5.074-3.778-1.685-5.43-3.865-11.101-5.799-15.799h74.696c-1.937 4.699-4.115 10.369-5.8 15.8zm23.464-30.816h-110.026v-14.944h110.026zm22.431-29.961h-14.923-125.042-14.923v-14.944h154.888zm18.15-29.961h-191.188v-14.944h191.188zm19.957-29.961h-231.102v-14.944h231.101v14.944z"/></g></svg>