<svg id="Capa_1" enable-background="new 0 0 511.902 511.902" height="512" viewBox="0 0 511.902 511.902" width="512" xmlns="http://www.w3.org/2000/svg"><g><path d="m468.529 374.789c6.581 0 11.935-5.354 11.935-11.935v-22.661c0-6.581-5.354-11.935-11.935-11.935h-8.946v-30.93c0-4.139-3.355-7.494-7.494-7.494s-7.494 3.355-7.494 7.494v30.93h-51.685v-85.655h51.685v20.687c0 4.138 3.355 7.494 7.494 7.494s7.494-3.355 7.494-7.494v-20.687h3.743c4.139 0 7.494-3.355 7.494-7.494s-3.355-7.494-7.494-7.494h-3.743v-.59c0-19.953-14.391-36.598-33.336-40.129v-18.273c0-4.139-3.355-7.494-7.494-7.494s-7.494 3.355-7.494 7.494v18.273c-6.225 1.16-11.96 3.727-16.852 7.373h-28.239v-39.795c0-31.814-14.555-62.722-37.985-80.661-14.258-10.918-23.09-15.328-38.524-22.154-9.404-4.159-20.975-11.889-26.216-21.411v-22.754c0-4.139-3.355-7.494-7.494-7.494s-7.494 3.355-7.494 7.494v22.753c-5.24 9.522-16.811 17.252-26.216 21.411-15.434 6.825-24.265 11.236-38.524 22.153-23.43 17.94-37.985 48.848-37.985 80.662v39.795h-28.239c-4.892-3.645-10.627-6.213-16.852-7.373v-18.273c0-4.139-3.355-7.494-7.494-7.494s-7.494 3.355-7.494 7.494v18.273c-18.945 3.531-33.336 20.175-33.336 40.129v.59h-3.743c-4.139 0-7.494 3.355-7.494 7.494s3.355 7.494 7.494 7.494h3.743v85.655h-8.946c-6.581 0-11.935 5.354-11.935 11.935v22.661c0 6.581 5.354 11.935 11.935 11.935h11.222v122.126h-15.66c-4.139 0-7.494 3.355-7.494 7.494s3.355 7.494 7.494 7.494h434.04c4.139 0 7.494-3.355 7.494-7.494s-3.355-7.494-7.494-7.494h-15.664v-122.125zm-75.617-147.765c0-14.25 11.593-25.843 25.842-25.843 14.25 0 25.842 11.593 25.842 25.843v.59h-51.685v-.59zm-232.192-72.551c0-27.249 12.303-53.597 32.109-68.762 13.04-9.984 20.823-13.867 35.474-20.346 4.686-2.072 18.082-8.654 27.648-19.808 9.566 11.155 22.962 17.736 27.648 19.808 14.651 6.479 22.434 10.362 35.474 20.346 19.806 15.165 32.11 41.513 32.109 68.762v6.656h-190.462zm0 21.643h190.461v18.152h-190.461zm221.279 33.14c-2.609 5.375-4.075 11.404-4.075 17.769v.59h-3.743c-4.139 0-7.494 3.355-7.494 7.494s3.355 7.494 7.494 7.494h3.743v20.587h-20.418v-12.034c0-7.999-3.471-15.585-9.522-20.815l-8.443-7.297c-5.836-5.044-14.637-5.044-20.473 0l-8.442 7.297c-6.052 5.23-9.522 12.817-9.522 20.815v12.034h-16.952v-12.034c0-7.999-3.471-15.585-9.522-20.815l-8.443-7.297c-5.836-5.044-14.637-5.044-20.473 0l-8.443 7.297c-6.051 5.23-9.522 12.817-9.522 20.815v12.034h-16.952v-12.034c0-7.998-3.471-15.585-9.522-20.815l-8.443-7.297c-5.836-5.044-14.637-5.044-20.473 0l-8.443 7.297c-6.051 5.23-9.522 12.817-9.522 20.815v12.034h-20.418v-20.587h3.743c4.139 0 7.494-3.355 7.494-7.494s-3.355-7.494-7.494-7.494h-3.743v-.59c0-6.365-1.466-12.394-4.075-17.769zm-4.075 68.92v50.081h-243.946v-50.081zm-208.541-14.987v-12.034c0-3.641 1.58-7.096 4.335-9.476l8.443-7.297c.249-.215.624-.215.873 0l8.442 7.297c2.755 2.381 4.335 5.835 4.335 9.476v12.034zm73.354 0v-12.034c0-3.641 1.58-7.096 4.335-9.476l8.443-7.297c.249-.215.624-.215.873 0l8.443 7.297c2.755 2.381 4.335 5.835 4.335 9.476v12.034zm73.354 0v-12.034c0-3.641 1.58-7.095 4.335-9.476l8.442-7.297c.25-.216.624-.215.873 0l8.443 7.297c2.755 2.381 4.335 5.835 4.335 9.476v12.034zm-248.786-36.165c0-14.25 11.593-25.843 25.842-25.843 14.25 0 25.842 11.593 25.842 25.843v.59h-51.684zm0 15.578h51.685v85.655h-51.685zm58.671 254.313h-27.344v-65.462c0-3.77 1.636-7.346 4.488-9.811l8.629-7.459c.318-.273.794-.273 1.109 0l8.629 7.459c2.853 2.465 4.488 6.041 4.488 9.811v65.462zm143.646 0h-27.343v-65.462c0-3.77 1.636-7.346 4.488-9.811l8.628-7.458c.318-.274.794-.274 1.11 0l8.629 7.459c2.852 2.465 4.488 6.041 4.488 9.811zm71.824 0h-27.344v-65.462c0-3.77 1.636-7.346 4.488-9.811l8.628-7.458c.318-.274.794-.274 1.11 0l8.629 7.459c2.853 2.465 4.488 6.041 4.488 9.811v65.461zm71.823 0h-27.344v-65.462c0-3.77 1.636-7.346 4.488-9.811l8.629-7.459c.317-.273.794-.273 1.109 0l8.628 7.459c2.853 2.465 4.488 6.041 4.488 9.811v65.462zm29.051 0h-14.063v-65.462c0-8.126-3.526-15.835-9.675-21.15l-8.629-7.459c-5.903-5.101-14.806-5.101-20.709 0l-8.63 7.459c-6.148 5.315-9.674 13.024-9.674 21.15v65.462h-14.505v-65.462c0-8.127-3.526-15.836-9.675-21.15l-8.629-7.459c-5.903-5.101-14.806-5.101-20.709 0l-8.629 7.459c-6.148 5.315-9.674 13.024-9.674 21.15v65.462h-14.509v-65.462c0-8.127-3.526-15.836-9.675-21.15l-8.629-7.459c-5.903-5.101-14.806-5.101-20.709 0l-8.629 7.459c-6.149 5.314-9.675 13.023-9.675 21.15v65.462h-14.505v-65.462c0-8.126-3.526-15.835-9.675-21.15l-8.629-7.459c-5.903-5.101-14.806-5.101-20.71 0l-8.629 7.459c-6.149 5.314-9.675 13.023-9.675 21.15v10.691c0 4.139 3.355 7.494 7.494 7.494s7.494-3.355 7.494-7.494v-10.691c0-3.77 1.636-7.346 4.488-9.811l8.628-7.458c.318-.274.794-.274 1.11 0l8.628 7.459c2.853 2.465 4.488 6.041 4.488 9.811v65.462h-27.344v-19.769c0-4.139-3.355-7.494-7.494-7.494s-7.494 3.355-7.494 7.494v19.769h-14.505v-65.462c0-8.126-3.526-15.835-9.675-21.15l-8.63-7.459c-5.903-5.101-14.806-5.101-20.709 0l-8.629 7.459c-6.148 5.315-9.674 13.024-9.674 21.15v65.462h-14.064v-122.127h372.738zm-395.896-137.113v-16.557h419.053v16.557z"/></g></svg>