<svg id="Capa_1" enable-background="new 0 0 512 512" height="512" viewBox="0 0 512 512" width="512" xmlns="http://www.w3.org/2000/svg"><g><g><path d="m256 159.8c-4.145 0-7.504 3.359-7.504 7.504v9.721h-9.721c-4.145 0-7.504 3.359-7.504 7.504s3.359 7.504 7.504 7.504h9.721v28.882c0 4.145 3.359 7.504 7.504 7.504s7.504-3.359 7.504-7.504v-28.882h9.721c4.145 0 7.504-3.359 7.504-7.504s-3.359-7.504-7.504-7.504h-9.721v-9.721c0-4.145-3.359-7.504-7.504-7.504z"/><path d="m499.24 496.991h-32.188v-175.955h4.183c5.969 0 10.825-4.856 10.825-10.824v-23.912c0-5.969-4.856-10.825-10.825-10.825h-27.788v-27.286c0-5.969-4.856-10.825-10.825-10.825h-63.874c-2.44-44.254-30.458-81.8-69.499-98.045v-42.32h.556c6.162 0 11.174-5.013 11.174-11.175v-19.433c0-6.162-5.013-11.174-11.174-11.174h-8.238v-15.303c0-6.326-5.146-11.472-11.472-11.472h-16.591v-20.938c0-4.145-3.359-7.504-7.504-7.504s-7.504 3.359-7.504 7.504v20.938h-16.591c-6.326 0-11.472 5.146-11.472 11.472v15.303h-8.238c-6.162 0-11.174 5.012-11.174 11.174v19.433c0 6.162 5.013 11.175 11.174 11.175h.556v42.28c-12.705 5.266-24.451 12.869-34.655 22.593-3.001 2.859-3.115 7.61-.256 10.61 2.86 3.001 7.609 3.116 10.61.256 18.289-17.428 42.279-27.026 67.551-27.026 51.891 0 94.485 40.566 97.733 91.651h-195.464c.877-13.612 4.589-26.979 10.869-38.997 1.919-3.674.497-8.208-3.177-10.127-3.668-1.915-8.206-.496-10.126 3.176-7.395 14.154-11.699 29.921-12.595 45.948h-63.862c-5.969 0-10.825 4.856-10.825 10.825v27.286h-27.789c-5.969 0-10.825 4.856-10.825 10.825v23.912c0 5.968 4.856 10.824 10.825 10.824h4.183v175.956h-32.188c-4.145 0-7.504 3.359-7.504 7.504s3.359 7.504 7.504 7.504h486.48c4.145 0 7.504-3.359 7.504-7.504 0-4.144-3.359-7.504-7.504-7.504zm-263.798-453.541h41.117v11.766h-41.117zm48.798 90.828c-9.029-2.333-18.492-3.575-28.24-3.575-9.637 0-19.111 1.218-28.24 3.565v-36.516h56.481v36.526zm11.731-52.287h-79.942v-11.766h79.942zm-212.409 170.38h344.876v23.103h-344.876zm-38.614 38.111h422.104v15.545h-422.104zm73.968 206.424h-32.446v-22.221h32.446zm-25.845-37.229v-97.757h19.242v97.756h-19.242zm100.909 37.314h-32.363v-84.298c0-8.923 7.259-16.182 16.181-16.182 8.923 0 16.182 7.259 16.182 16.182zm78.202 0h-32.364v-84.298c0-8.923 7.259-16.182 16.182-16.182s16.182 7.259 16.182 16.182zm112.496-36.274c-3.89 1.791-6.602 5.716-6.602 10.271v26.003h-12.684v-21.243c0-4.145-3.359-7.504-7.504-7.504s-7.504 3.359-7.504 7.504v21.243h-32.364v-84.298c0-8.923 7.259-16.182 16.182-16.182 8.922 0 16.181 7.259 16.181 16.182v27.936c0 4.145 3.359 7.504 7.504 7.504s7.504-3.359 7.504-7.504v-27.936c0-17.198-13.991-31.19-31.189-31.19s-31.19 13.992-31.19 31.19v84.298h-15.822v-84.298c0-17.198-13.992-31.19-31.19-31.19s-31.19 13.992-31.19 31.19v84.298h-15.822v-84.298c0-17.198-13.992-31.19-31.19-31.19s-31.189 13.992-31.189 31.19v84.298h-12.684v-26.003c0-4.556-2.713-8.48-6.602-10.271v-98.797h257.356v98.797zm40.852 36.189h-32.446v-22.221h32.446zm-25.843-37.229v-97.757h19.242v97.756h-19.242zm52.356 37.314h-11.504v-26.003c0-4.555-2.712-8.48-6.601-10.271v-102.493c0-6.238-5.074-11.312-11.312-11.312h-333.251c-6.238 0-11.312 5.074-11.312 11.312v102.494c-3.889 1.791-6.601 5.716-6.601 10.271v26.003h-11.505v-175.956h392.086z"/></g></g></svg>