<svg id="Capa_1" enable-background="new 0 0 512 512" height="512" viewBox="0 0 512 512" width="512" xmlns="http://www.w3.org/2000/svg"><g><g><g><path d="m106.182 281.971c-4.154 0-7.522 3.368-7.522 7.522v11.14c0 4.155 3.368 7.522 7.522 7.522s7.522-3.368 7.522-7.522v-11.14c0-4.154-3.368-7.522-7.522-7.522z"/><path d="m144.645 281.971c-4.154 0-7.522 3.368-7.522 7.522v11.14c0 4.155 3.368 7.522 7.522 7.522s7.522-3.368 7.522-7.522v-11.14c0-4.154-3.368-7.522-7.522-7.522z"/><path d="m106.182 337.671c-4.154 0-7.522 3.368-7.522 7.522v11.14c0 4.154 3.368 7.522 7.522 7.522s7.522-3.368 7.522-7.522v-11.14c0-4.154-3.368-7.522-7.522-7.522z"/><path d="m144.645 337.671c-4.154 0-7.522 3.368-7.522 7.522v11.14c0 4.154 3.368 7.522 7.522 7.522s7.522-3.368 7.522-7.522v-11.14c0-4.154-3.368-7.522-7.522-7.522z"/><path d="m106.182 393.371c-4.154 0-7.522 3.368-7.522 7.522v11.14c0 4.154 3.368 7.522 7.522 7.522s7.522-3.368 7.522-7.522v-11.14c0-4.155-3.368-7.522-7.522-7.522z"/><path d="m144.645 393.371c-4.154 0-7.522 3.368-7.522 7.522v11.14c0 4.154 3.368 7.522 7.522 7.522s7.522-3.368 7.522-7.522v-11.14c0-4.155-3.368-7.522-7.522-7.522z"/><path d="m106.182 449.07c-4.154 0-7.522 3.368-7.522 7.522v11.14c0 4.154 3.368 7.522 7.522 7.522s7.522-3.368 7.522-7.522v-11.14c0-4.154-3.368-7.522-7.522-7.522z"/><path d="m144.645 449.07c-4.154 0-7.522 3.368-7.522 7.522v11.14c0 4.154 3.368 7.522 7.522 7.522s7.522-3.368 7.522-7.522v-11.14c0-4.154-3.368-7.522-7.522-7.522z"/><path d="m480.888 496.956h-31.325v-170.037c0-4.155-3.367-7.522-7.522-7.522s-7.522 3.368-7.522 7.522v170.036h-95.864v-236.685h95.864v32.013c0 4.155 3.367 7.522 7.522 7.522s7.522-3.368 7.522-7.522v-34.846c0-6.733-5.478-12.211-12.211-12.211h-1.074v-51.636c0-6.443-5.019-11.723-11.35-12.168v-51.68c0-6.523-5.145-11.851-11.587-12.179v-51.409c0-6.733-5.478-12.211-12.211-12.211h-7.021v-46.421c0-4.154-3.367-7.522-7.522-7.522s-7.522 3.368-7.522 7.522v46.421h-7.021c-6.733 0-12.211 5.478-12.211 12.211v51.409c-6.442.328-11.587 5.656-11.587 12.179v51.68c-6.332.445-11.351 5.725-11.351 12.168v51.636h-1.073c-6.733 0-12.211 5.478-12.211 12.211v57.638h-135.221v-57.638c0-6.733-5.478-12.211-12.211-12.211h-1.074v-51.636c0-6.443-5.019-11.723-11.35-12.168v-51.68c0-6.523-5.145-11.852-11.587-12.179v-51.409c0-6.733-5.478-12.211-12.211-12.211h-7.02v-46.421c0-4.154-3.368-7.522-7.522-7.522s-7.522 3.368-7.522 7.522v46.421h-7.021c-6.733 0-12.211 5.478-12.211 12.211v51.409c-6.443.328-11.587 5.656-11.587 12.179v51.68c-6.332.445-11.35 5.725-11.35 12.168v51.636h-1.074c-6.733 0-12.211 5.478-12.211 12.211v239.519h-31.327c-4.154 0-7.522 3.368-7.522 7.522s3.368 7.522 7.522 7.522h449.777c4.155 0 7.522-3.368 7.522-7.522 0-4.155-3.368-7.522-7.523-7.522zm-106.01-427.968h23.419v48.543h-23.419zm-11.587 63.588h46.593v48.802h-46.593zm-11.351 63.846h69.294v48.803h-69.294zm-163.55 133.698h135.22v19.774h-135.22zm0 34.818h40.524l-40.524 24.39zm-74.686-295.95h23.418v48.543h-23.418zm-11.587 63.588h46.593v48.802h-46.593zm-11.35 63.846h69.293v48.803h-69.293zm232.844 300.534h-135.221v-27.779c0-4.155-3.368-7.522-7.522-7.522s-7.522 3.368-7.522 7.522v27.779h-95.864v-236.686h95.864v173.732c0 4.154 3.368 7.522 7.522 7.522s7.522-3.368 7.522-7.522v-27.115l67.61-40.692 67.611 40.692zm0-107.628-40.526-24.391h40.526z"/><path d="m374.878 289.494c0-4.155-3.367-7.522-7.522-7.522s-7.522 3.368-7.522 7.522v11.14c0 4.155 3.367 7.522 7.522 7.522s7.522-3.368 7.522-7.522z"/><path d="m413.341 289.494c0-4.155-3.367-7.522-7.522-7.522s-7.522 3.368-7.522 7.522v11.14c0 4.155 3.367 7.522 7.522 7.522s7.522-3.368 7.522-7.522z"/><path d="m374.878 345.193c0-4.154-3.367-7.522-7.522-7.522s-7.522 3.368-7.522 7.522v11.14c0 4.154 3.367 7.522 7.522 7.522s7.522-3.368 7.522-7.522z"/><path d="m413.341 345.193c0-4.154-3.367-7.522-7.522-7.522s-7.522 3.368-7.522 7.522v11.14c0 4.154 3.367 7.522 7.522 7.522s7.522-3.368 7.522-7.522z"/><path d="m374.878 400.893c0-4.154-3.367-7.522-7.522-7.522s-7.522 3.368-7.522 7.522v11.14c0 4.154 3.367 7.522 7.522 7.522s7.522-3.368 7.522-7.522z"/><path d="m413.341 400.893c0-4.154-3.367-7.522-7.522-7.522s-7.522 3.368-7.522 7.522v11.14c0 4.154 3.367 7.522 7.522 7.522s7.522-3.368 7.522-7.522z"/><path d="m367.356 449.07c-4.155 0-7.522 3.368-7.522 7.522v11.14c0 4.154 3.367 7.522 7.522 7.522s7.522-3.368 7.522-7.522v-11.14c0-4.154-3.367-7.522-7.522-7.522z"/><path d="m405.819 449.07c-4.155 0-7.522 3.368-7.522 7.522v11.14c0 4.154 3.367 7.522 7.522 7.522s7.522-3.368 7.522-7.522v-11.14c0-4.154-3.367-7.522-7.522-7.522z"/></g></g></g></svg>